<svg width="30" height="30" viewBox="0 0 30 30" fill="none" xmlns="http://www.w3.org/2000/svg">
<path d="M14.9969 0.933594C9.31255 0.933594 4.68531 5.56086 4.6853 11.2452C4.6853 21.2471 14.4156 28.851 14.4156 28.851C14.5817 28.9835 14.7878 29.0557 15.0003 29.0557C15.2128 29.0557 15.419 28.9835 15.5851 28.851C15.5851 28.851 25.3154 21.2471 25.3154 11.2452C25.3154 5.56086 20.6812 0.933594 14.9969 0.933594ZM14.9969 2.80906C19.6679 2.80906 23.4399 6.57417 23.4399 11.2452C23.4399 19.4276 16.0306 25.8923 15.0038 26.7679C13.9819 25.8967 6.56076 19.4308 6.56076 11.2452C6.56077 6.57417 10.3259 2.80906 14.9969 2.80906Z" fill="#6C6C6C"/>
<path d="M14.997 6.56055C12.4192 6.56055 10.3118 8.66802 10.3118 11.2457C10.3118 13.8235 12.4192 15.9379 14.997 15.9379C17.5747 15.9379 19.6891 13.8235 19.6891 11.2457C19.6891 8.66802 17.5747 6.56055 14.997 6.56055ZM14.997 8.43601C16.5614 8.43601 17.8136 9.68133 17.8136 11.2457C17.8136 12.8101 16.5614 14.0624 14.997 14.0624C13.4325 14.0624 12.1872 12.8101 12.1872 11.2457C12.1872 9.68133 13.4326 8.43601 14.997 8.43601Z" fill="#6C6C6C"/>
</svg>
