<svg width="43" height="43" viewBox="0 0 43 43" fill="none" xmlns="http://www.w3.org/2000/svg">
<rect width="43" height="43" rx="21.5" fill="#F5F5F5"/>
<path d="M20.9969 7.93359C15.3126 7.93359 10.6853 12.5609 10.6853 18.2452C10.6853 28.2471 20.4156 35.851 20.4156 35.851C20.5817 35.9835 20.7878 36.0557 21.0003 36.0557C21.2128 36.0557 21.419 35.9835 21.5851 35.851C21.5851 35.851 31.3154 28.2471 31.3154 18.2452C31.3154 12.5609 26.6812 7.93359 20.9969 7.93359ZM20.9969 9.80906C25.6679 9.80906 29.4399 13.5742 29.4399 18.2452C29.4399 26.4276 22.0306 32.8923 21.0038 33.7679C19.9819 32.8967 12.5608 26.4308 12.5608 18.2452C12.5608 13.5742 16.3259 9.80906 20.9969 9.80906Z" fill="#6C6C6C"/>
<path d="M20.997 13.5605C18.4192 13.5605 16.3118 15.668 16.3118 18.2457C16.3118 20.8235 18.4192 22.9379 20.997 22.9379C23.5747 22.9379 25.6891 20.8235 25.6891 18.2457C25.6891 15.668 23.5747 13.5605 20.997 13.5605ZM20.997 15.436C22.5614 15.436 23.8136 16.6813 23.8136 18.2457C23.8136 19.8101 22.5614 21.0624 20.997 21.0624C19.4325 21.0624 18.1872 19.8101 18.1872 18.2457C18.1872 16.6813 19.4326 15.436 20.997 15.436Z" fill="#6C6C6C"/>
</svg>
