<svg width="25" height="25" viewBox="0 0 25 25" fill="none" xmlns="http://www.w3.org/2000/svg">
<path d="M12.4167 2V8.41026" stroke="#545454" stroke-width="2" stroke-linecap="round" stroke-linejoin="round"/>
<path d="M2 8.41016H22.8333V21.2307C22.8333 21.6557 22.6644 22.0634 22.3639 22.3638C22.0635 22.6643 21.6558 22.8332 21.2308 22.8332H3.60256C3.17753 22.8332 2.76992 22.6643 2.46938 22.3638C2.16884 22.0634 2 21.6557 2 21.2307V8.41016Z" stroke="#545454" stroke-width="2" stroke-linecap="round" stroke-linejoin="round"/>
<path d="M2 8.41026L4.40385 3.77885C4.663 3.25684 5.05957 2.81538 5.5509 2.50195C6.04223 2.18851 6.60971 2.01497 7.19231 2H17.641C18.2373 2.00032 18.8216 2.16697 19.3285 2.48122C19.8353 2.79547 20.2442 3.24486 20.5096 3.77885L22.8333 8.41026" stroke="#545454" stroke-width="2" stroke-linecap="round" stroke-linejoin="round"/>
<path d="M16.4201 12.417L11.6182 18.8272L8.41309 16.4263" stroke="#545454" stroke-width="2" stroke-linecap="round" stroke-linejoin="round"/>
</svg>
