<svg width="25" height="25" viewBox="0 0 25 25" fill="none" xmlns="http://www.w3.org/2000/svg">
<g clip-path="url(#clip0_16_13868)">
<path d="M17.2188 11.5209L16.1146 10.4167L11.0312 15.5001L8.82292 13.2917L7.71875 14.3959L11.0312 17.7084L17.2188 11.5209ZM19.7917 3.12508H18.75V1.04175H16.6667V3.12508H8.33333V1.04175H6.25V3.12508H5.20833C4.05208 3.12508 3.13542 4.06258 3.13542 5.20841L3.125 19.7917C3.125 20.9376 4.05208 21.8751 5.20833 21.8751H19.7917C20.9375 21.8751 21.875 20.9376 21.875 19.7917V5.20841C21.875 4.06258 20.9375 3.12508 19.7917 3.12508ZM19.7917 19.7917H5.20833V8.33341H19.7917V19.7917Z" fill="#545454"/>
</g>
<defs>
<clipPath id="clip0_16_13868">
<rect width="25" height="25" fill="white"/>
</clipPath>
</defs>
</svg>
