<svg width="25" height="25" viewBox="0 0 25 25" fill="none" xmlns="http://www.w3.org/2000/svg">
<g clip-path="url(#clip0_53_2427)">
<path d="M17.2188 11.5212L16.1146 10.417L11.0312 15.5003L8.82292 13.292L7.71875 14.3962L11.0312 17.7087L17.2188 11.5212ZM19.7917 3.12533H18.75V1.04199H16.6667V3.12533H8.33333V1.04199H6.25V3.12533H5.20833C4.05208 3.12533 3.13542 4.06283 3.13542 5.20866L3.125 19.792C3.125 20.9378 4.05208 21.8753 5.20833 21.8753H19.7917C20.9375 21.8753 21.875 20.9378 21.875 19.792V5.20866C21.875 4.06283 20.9375 3.12533 19.7917 3.12533ZM19.7917 19.792H5.20833V8.33366H19.7917V19.792Z" fill="white"/>
</g>
<defs>
<clipPath id="clip0_53_2427">
<rect width="25" height="25" fill="white"/>
</clipPath>
</defs>
</svg>
