<svg width="25" height="25" viewBox="0 0 25 25" fill="none" xmlns="http://www.w3.org/2000/svg">
<path d="M19.7916 4.16634H17.7083V3.12467C17.7083 2.84841 17.5985 2.58346 17.4032 2.3881C17.2078 2.19275 16.9429 2.08301 16.6666 2.08301C16.3903 2.08301 16.1254 2.19275 15.93 2.3881C15.7347 2.58346 15.6249 2.84841 15.6249 3.12467V4.16634H9.37492V3.12467C9.37492 2.84841 9.26517 2.58346 9.06982 2.3881C8.87447 2.19275 8.60952 2.08301 8.33325 2.08301C8.05698 2.08301 7.79203 2.19275 7.59668 2.3881C7.40133 2.58346 7.29158 2.84841 7.29158 3.12467V4.16634H5.20825C4.37945 4.16634 3.58459 4.49558 2.99854 5.08163C2.41249 5.66768 2.08325 6.46254 2.08325 7.29134V19.7913C2.08325 20.6201 2.41249 21.415 2.99854 22.001C3.58459 22.5871 4.37945 22.9163 5.20825 22.9163H19.7916C20.6204 22.9163 21.4152 22.5871 22.0013 22.001C22.5873 21.415 22.9166 20.6201 22.9166 19.7913V7.29134C22.9166 6.46254 22.5873 5.66768 22.0013 5.08163C21.4152 4.49558 20.6204 4.16634 19.7916 4.16634ZM20.8333 19.7913C20.8333 20.0676 20.7235 20.3326 20.5282 20.5279C20.3328 20.7233 20.0679 20.833 19.7916 20.833H5.20825C4.93198 20.833 4.66703 20.7233 4.47168 20.5279C4.27633 20.3326 4.16659 20.0676 4.16659 19.7913V12.4997H20.8333V19.7913ZM20.8333 10.4163H4.16659V7.29134C4.16659 7.01507 4.27633 6.75012 4.47168 6.55477C4.66703 6.35942 4.93198 6.24967 5.20825 6.24967H7.29158V7.29134C7.29158 7.56761 7.40133 7.83256 7.59668 8.02791C7.79203 8.22326 8.05698 8.33301 8.33325 8.33301C8.60952 8.33301 8.87447 8.22326 9.06982 8.02791C9.26517 7.83256 9.37492 7.56761 9.37492 7.29134V6.24967H15.6249V7.29134C15.6249 7.56761 15.7347 7.83256 15.93 8.02791C16.1254 8.22326 16.3903 8.33301 16.6666 8.33301C16.9429 8.33301 17.2078 8.22326 17.4032 8.02791C17.5985 7.83256 17.7083 7.56761 17.7083 7.29134V6.24967H19.7916C20.0679 6.24967 20.3328 6.35942 20.5282 6.55477C20.7235 6.75012 20.8333 7.01507 20.8333 7.29134V10.4163Z" fill="white"/>
</svg>
