<svg width="25" height="25" viewBox="0 0 25 25" fill="none" xmlns="http://www.w3.org/2000/svg">
<path d="M19.7916 4.16659H17.7083V3.12492C17.7083 2.84865 17.5985 2.5837 17.4032 2.38835C17.2078 2.193 16.9429 2.08325 16.6666 2.08325C16.3903 2.08325 16.1254 2.193 15.93 2.38835C15.7347 2.5837 15.6249 2.84865 15.6249 3.12492V4.16659H9.37492V3.12492C9.37492 2.84865 9.26517 2.5837 9.06982 2.38835C8.87447 2.193 8.60952 2.08325 8.33325 2.08325C8.05698 2.08325 7.79203 2.193 7.59668 2.38835C7.40133 2.5837 7.29158 2.84865 7.29158 3.12492V4.16659H5.20825C4.37945 4.16659 3.58459 4.49583 2.99854 5.08188C2.41249 5.66793 2.08325 6.46278 2.08325 7.29158V19.7916C2.08325 20.6204 2.41249 21.4152 2.99854 22.0013C3.58459 22.5873 4.37945 22.9166 5.20825 22.9166H19.7916C20.6204 22.9166 21.4152 22.5873 22.0013 22.0013C22.5873 21.4152 22.9166 20.6204 22.9166 19.7916V7.29158C22.9166 6.46278 22.5873 5.66793 22.0013 5.08188C21.4152 4.49583 20.6204 4.16659 19.7916 4.16659ZM20.8333 19.7916C20.8333 20.0679 20.7235 20.3328 20.5282 20.5282C20.3328 20.7235 20.0679 20.8333 19.7916 20.8333H5.20825C4.93198 20.8333 4.66703 20.7235 4.47168 20.5282C4.27633 20.3328 4.16659 20.0679 4.16659 19.7916V12.4999H20.8333V19.7916ZM20.8333 10.4166H4.16659V7.29158C4.16659 7.01532 4.27633 6.75037 4.47168 6.55502C4.66703 6.35967 4.93198 6.24992 5.20825 6.24992H7.29158V7.29158C7.29158 7.56785 7.40133 7.8328 7.59668 8.02815C7.79203 8.22351 8.05698 8.33325 8.33325 8.33325C8.60952 8.33325 8.87447 8.22351 9.06982 8.02815C9.26517 7.8328 9.37492 7.56785 9.37492 7.29158V6.24992H15.6249V7.29158C15.6249 7.56785 15.7347 7.8328 15.93 8.02815C16.1254 8.22351 16.3903 8.33325 16.6666 8.33325C16.9429 8.33325 17.2078 8.22351 17.4032 8.02815C17.5985 7.8328 17.7083 7.56785 17.7083 7.29158V6.24992H19.7916C20.0679 6.24992 20.3328 6.35967 20.5282 6.55502C20.7235 6.75037 20.8333 7.01532 20.8333 7.29158V10.4166Z" fill="#545454"/>
</svg>
