<svg width="15" height="16" viewBox="0 0 15 16" fill="none" xmlns="http://www.w3.org/2000/svg">
<g clip-path="url(#clip0_247_309)">
<path d="M5.35707 0.880859H1.60707C1.32291 0.880859 1.05039 0.993742 0.849459 1.19467C0.648527 1.39561 0.535645 1.66813 0.535645 1.95229V5.70229C0.535645 5.98645 0.648527 6.25897 0.849459 6.4599C1.05039 6.66083 1.32291 6.77372 1.60707 6.77372H5.35707C5.64123 6.77372 5.91376 6.66083 6.11469 6.4599C6.31562 6.25897 6.4285 5.98645 6.4285 5.70229V1.95229C6.4285 1.66813 6.31562 1.39561 6.11469 1.19467C5.91376 0.993742 5.64123 0.880859 5.35707 0.880859Z" stroke="#DDB667" stroke-width="1.71429" stroke-linecap="round" stroke-linejoin="round"/>
<path d="M13.3927 8.91602H9.64272C9.35856 8.91602 9.08604 9.0289 8.8851 9.22983C8.68417 9.43076 8.57129 9.70328 8.57129 9.98744V13.7374C8.57129 14.0216 8.68417 14.2941 8.8851 14.4951C9.08604 14.696 9.35856 14.8089 9.64272 14.8089H13.3927C13.6769 14.8089 13.9494 14.696 14.1503 14.4951C14.3513 14.2941 14.4641 14.0216 14.4641 13.7374V9.98744C14.4641 9.70328 14.3513 9.43076 14.1503 9.22983C13.9494 9.0289 13.6769 8.91602 13.3927 8.91602Z" stroke="#DDB667" stroke-width="1.71429" stroke-linecap="round" stroke-linejoin="round"/>
<path d="M5.35707 8.91602H1.60707C1.32291 8.91602 1.05039 9.0289 0.849459 9.22983C0.648527 9.43076 0.535645 9.70328 0.535645 9.98744V13.7374C0.535645 14.0216 0.648527 14.2941 0.849459 14.4951C1.05039 14.696 1.32291 14.8089 1.60707 14.8089H5.35707C5.64123 14.8089 5.91376 14.696 6.11469 14.4951C6.31562 14.2941 6.4285 14.0216 6.4285 13.7374V9.98744C6.4285 9.70328 6.31562 9.43076 6.11469 9.22983C5.91376 9.0289 5.64123 8.91602 5.35707 8.91602Z" stroke="#DDB667" stroke-width="1.71429" stroke-linecap="round" stroke-linejoin="round"/>
<path d="M11.5178 6.77372V0.880859" stroke="#DDB667" stroke-width="1.71429" stroke-linecap="round" stroke-linejoin="round"/>
<path d="M8.57129 3.82812H14.4641" stroke="#DDB667" stroke-width="1.71429" stroke-linecap="round" stroke-linejoin="round"/>
</g>
<defs>
<clipPath id="clip0_247_309">
<rect y="0.345703" width="15" height="15" fill="white"/>
</clipPath>
</defs>
</svg>
