<svg width="43" height="43" viewBox="0 0 43 43" fill="none" xmlns="http://www.w3.org/2000/svg">
<rect width="43" height="43" rx="21.5" fill="#F5F5F5"/>
<g clip-path="url(#clip0_535_577)">
<path d="M12.6429 13.2871C12.2071 13.2871 11.7893 13.4602 11.4812 13.7683C11.1731 14.0764 11 14.4942 11 14.93V30.5371C11 30.9728 11.1731 31.3907 11.4812 31.6988C11.7893 32.0068 12.2071 32.18 12.6429 32.18H30.7143C31.15 32.18 31.5679 32.0068 31.876 31.6988C32.184 31.3907 32.3571 30.9728 32.3571 30.5371V14.93C32.3571 14.4942 32.184 14.0764 31.876 13.7683C31.5679 13.4602 31.15 13.2871 30.7143 13.2871H27.4286" stroke="#666666" stroke-width="2" stroke-linecap="round" stroke-linejoin="round"/>
<path d="M11 19.0371H32.3571" stroke="#666666" stroke-width="2" stroke-linecap="round" stroke-linejoin="round"/>
<path d="M15.9285 10.8223V15.7508" stroke="#666666" stroke-width="2" stroke-linecap="round" stroke-linejoin="round"/>
<path d="M27.4285 10.8223V15.7508" stroke="#666666" stroke-width="2" stroke-linecap="round" stroke-linejoin="round"/>
<path d="M15.9285 13.2871H24.1428" stroke="#666666" stroke-width="2" stroke-linecap="round" stroke-linejoin="round"/>
</g>
<defs>
<clipPath id="clip0_535_577">
<rect width="23" height="23" fill="white" transform="translate(10 10)"/>
</clipPath>
</defs>
</svg>
