<svg width="43" height="43" viewBox="0 0 43 43" fill="none" xmlns="http://www.w3.org/2000/svg">
<rect width="43" height="43" rx="21.5" fill="#F5F5F5"/>
<path d="M9.75 13.875C9.75 24.5755 18.4245 33.25 29.125 33.25C29.6078 33.25 30.0864 33.2324 30.5604 33.1976C31.1043 33.1577 31.3761 33.1379 31.6238 32.9954C31.8288 32.8774 32.0231 32.6681 32.1259 32.455C32.25 32.1978 32.25 31.8976 32.25 31.2975V27.7759C32.25 27.2711 32.25 27.0188 32.1669 26.8025C32.0936 26.6114 31.9744 26.4412 31.8199 26.307C31.645 26.155 31.4078 26.0687 30.9335 25.8962L26.925 24.4386C26.3731 24.238 26.0971 24.1376 25.8354 24.1546C25.6045 24.1696 25.3824 24.2485 25.1936 24.3822C24.9796 24.5339 24.8286 24.7856 24.5265 25.2893L23.5 27C20.1876 25.4999 17.5024 22.8111 16 19.5L17.7108 18.4735C18.2143 18.1714 18.4661 18.0203 18.6178 17.8063C18.7515 17.6176 18.8304 17.3955 18.8454 17.1646C18.8624 16.9028 18.762 16.6269 18.5614 16.0751L17.1037 12.0665C16.9312 11.5922 16.845 11.355 16.693 11.1801C16.5588 11.0256 16.3886 10.9064 16.1975 10.8331C15.9812 10.75 15.7289 10.75 15.2242 10.75H11.7025C11.1023 10.75 10.8023 10.75 10.545 10.8741C10.3319 10.9768 10.1227 11.1713 10.0046 11.3763C9.8621 11.6238 9.84219 11.8958 9.80236 12.4397C9.76766 12.9136 9.75 13.3922 9.75 13.875Z" stroke="#6C6C6C" stroke-width="2" stroke-linecap="round" stroke-linejoin="round"/>
</svg>
