<svg width="21" height="21" viewBox="0 0 21 21" fill="none" xmlns="http://www.w3.org/2000/svg">
<rect width="21" height="21" rx="10.5" fill="#F5F5F5"/>
<g clip-path="url(#clip0_152_693)">
<path fill-rule="evenodd" clip-rule="evenodd" d="M5.81974 4H6.87199C7.08683 4 7.22844 4.15446 7.26262 4.33854C7.66056 6.51156 7.87541 8.68351 7.86442 10.8565H15.0629C15.3473 10.8565 15.5793 11.0586 15.5793 11.304V12.2086H15.1667V16.8328C15.1667 16.9069 15.0959 16.9693 15.0092 16.9693H13.6298C13.5431 16.9693 13.4723 16.908 13.4723 16.8328V14.8206H7.58122C7.49577 15.4342 7.38957 16.0479 7.26262 16.6615C7.22477 16.8445 7.08683 17 6.87199 17H5.81974C5.6049 17 5.3693 16.8402 5.42912 16.6615C6.81584 12.4762 6.52775 8.38517 5.42912 4.33854C5.37907 4.15763 5.6049 4 5.81974 4ZM13.4723 14.1986V12.2096H7.84245C7.81071 13.056 7.74357 13.3533 7.63859 14.1986H13.4723Z" fill="#666666"/>
</g>
<defs>
<clipPath id="clip0_152_693">
<rect width="15" height="13" fill="white" transform="translate(3 4)"/>
</clipPath>
</defs>
</svg>
