<svg width="43" height="43" viewBox="0 0 43 43" fill="none" xmlns="http://www.w3.org/2000/svg">
<rect width="43" height="43" rx="21.5" fill="#F5F5F5"/>
<g clip-path="url(#clip0_481_572)">
<path fillRule="evenodd" clip-rule="evenodd" d="M12.8877 10H14.7116C15.084 10 15.3294 10.2677 15.3886 10.5868C16.0784 14.3534 16.4508 18.1181 16.4318 21.8846H28.9091C29.4021 21.8846 29.8042 22.2349 29.8042 22.6603V24.2282H29.089V32.2436C29.089 32.372 28.9663 32.4801 28.816 32.4801H26.4251C26.2749 32.4801 26.1522 32.3738 26.1522 32.2436V28.7558H15.9409C15.7928 29.8194 15.6087 30.8829 15.3886 31.9465C15.323 32.2638 15.084 32.5333 14.7116 32.5333H12.8877C12.5153 32.5333 12.1069 32.2564 12.2106 31.9465C14.6142 24.6921 14.1149 17.601 12.2106 10.5868C12.1238 10.2732 12.5153 10 12.8877 10ZM26.1522 27.6775V24.23H16.3937C16.3387 25.697 16.2223 26.2123 16.0403 27.6775H26.1522Z" fill="#666666"/>
</g>
<defs>
<clipPath id="clip0_481_572">
<rect width="26" height="22.5333" fill="white" transform="translate(8 10)"/>
</clipPath>
</defs>
</svg>
