<svg width="30" height="30" viewBox="0 0 30 30" fill="none" xmlns="http://www.w3.org/2000/svg">
<path fill-rule="evenodd" clip-rule="evenodd" d="M5.63961 0H7.7441C8.17379 0 8.45699 0.356445 8.52535 0.78125C9.32125 5.7959 9.75094 10.8081 9.72897 15.8228H24.1259C24.6948 15.8228 25.1587 16.2891 25.1587 16.8555V18.9429H24.3335V29.6143C24.3335 29.7852 24.1919 29.9292 24.0185 29.9292H21.2597C21.0864 29.9292 20.9448 29.7876 20.9448 29.6143V24.9707H9.16256C8.99166 26.3867 8.77926 27.8027 8.52535 29.2187C8.44967 29.6411 8.17379 30 7.7441 30H5.63961C5.20992 30 4.73873 29.6313 4.85836 29.2187C7.6318 19.5605 7.05563 10.1196 4.85836 0.78125C4.75826 0.36377 5.20992 0 5.63961 0ZM20.9448 23.5352V18.9453H9.68502C9.62154 20.8984 9.48727 21.5845 9.27731 23.5352H20.9448Z" fill="#6C6C6C"/>
</svg>
