<svg width="25" height="25" viewBox="0 0 25 25" fill="none" xmlns="http://www.w3.org/2000/svg">
<path d="M2.46933 2.69724C1.35546 1.4178 -0.683111 2.62859 0.228608 4.64578C0.835932 5.99163 2.00932 9.28064 3.64736 11.6496C5.28618 14.0185 7.03251 13.7652 8.79643 14.3389L10.0637 14.9943L18.733 24.9652L20.4862 23.4401L20.4954 23.4325C20.239 23.1372 12.3548 14.0681 9.2374 10.4831C6.15204 6.9346 3.01103 3.32053 2.46933 2.69724Z" fill="#545454"/>
<path d="M23.2747 4.56785L20.2504 8.04763C20.0566 8.27043 19.7202 8.29329 19.4974 8.09954L19.3898 8.00647C19.1686 7.81345 19.1441 7.47698 19.3379 7.25422L22.3767 3.75842C22.8756 3.18547 22.6391 2.6781 22.2683 2.35613C21.8983 2.03494 21.3635 1.87087 20.8645 2.44465L17.8257 5.94045C17.6327 6.16248 17.2955 6.18611 17.0735 5.99236L16.9667 5.89929C16.7438 5.70627 16.7202 5.36907 16.9132 5.14705L19.9383 1.66726C20.8317 0.640356 19.3378 -0.597144 18.4658 0.406127C17.4213 1.60701 15.5773 3.72795 15.5773 3.72795C13.966 5.56819 13.9904 6.4303 14.2178 7.63801C14.4024 8.61155 14.6732 9.31189 13.673 10.4624L12.1968 12.1607L13.7456 13.9406L15.437 11.9951C16.4365 10.8454 17.1681 11.0163 18.1577 11.0628C19.386 11.1216 20.2428 11.0254 21.8404 9.17454C21.8404 9.17454 23.6844 7.05203 24.7289 5.85115C25.6009 4.84788 24.1673 3.54172 23.2747 4.56785Z" fill="#545454"/>
<path d="M9.07036 15.7563L2.39771 23.4315L4.16084 24.965L10.6962 17.4485L9.35112 15.9013L9.07036 15.7563Z" fill="#545454"/>
</svg>
