<svg width="25" height="25" viewBox="0 0 25 25" fill="none" xmlns="http://www.w3.org/2000/svg">
<g clip-path="url(#clip0_53_1866)">
<path d="M2.46933 2.69749C1.35546 1.41804 -0.683111 2.62883 0.228608 4.64602C0.835932 5.99187 2.00932 9.28088 3.64736 11.6498C5.28618 14.0188 7.03251 13.7655 8.79643 14.3392L10.0637 14.9946L18.733 24.9655L20.4862 23.4404L20.4954 23.4327C20.239 23.1375 12.3548 14.0684 9.2374 10.4833C6.15204 6.93484 3.01103 3.32078 2.46933 2.69749Z" fill="white"/>
<path d="M23.2747 4.56809L20.2504 8.04788C20.0566 8.27068 19.7202 8.29353 19.4974 8.09978L19.3898 8.00671C19.1686 7.8137 19.1441 7.47722 19.3379 7.25447L22.3767 3.75867C22.8756 3.18572 22.6391 2.67834 22.2683 2.35637C21.8983 2.03518 21.3635 1.87112 20.8645 2.4449L17.8257 5.9407C17.6327 6.16272 17.2955 6.18635 17.0735 5.9926L16.9667 5.89954C16.7438 5.70652 16.7202 5.36931 16.9132 5.14729L19.9383 1.6675C20.8317 0.6406 19.3378 -0.5969 18.4658 0.406372C17.4213 1.60725 15.5773 3.7282 15.5773 3.7282C13.966 5.56843 13.9904 6.43054 14.2178 7.63826C14.4024 8.61179 14.6732 9.31213 13.673 10.4627L12.1968 12.161L13.7456 13.9409L15.437 11.9954C16.4365 10.8456 17.1681 11.0165 18.1577 11.0631C19.386 11.1218 20.2428 11.0257 21.8404 9.17478C21.8404 9.17478 23.6844 7.05227 24.7289 5.85139C25.6009 4.84812 24.1673 3.54197 23.2747 4.56809Z" fill="white"/>
<path d="M9.07036 15.7568L2.39771 23.432L4.16084 24.9655L10.6962 17.449L9.35112 15.9018L9.07036 15.7568Z" fill="white"/>
</g>
<defs>
<clipPath id="clip0_53_1866">
<rect width="25" height="25" fill="white"/>
</clipPath>
</defs>
</svg>
