<svg width="21" height="21" viewBox="0 0 21 21" fill="none" xmlns="http://www.w3.org/2000/svg">
<rect width="21" height="21" rx="10.5" fill="#F5F5F5"/>
<path d="M15.5067 12.0943L12.0417 15.5585C11.8773 15.7218 11.6549 15.8135 11.4232 15.8135C11.1914 15.8135 10.9691 15.7218 10.8046 15.5585L5.84672 10.6006C5.47685 10.1883 5.2617 9.66035 5.23804 9.10696L5.27198 6.2009C5.27625 5.96746 5.37099 5.74479 5.53624 5.57984C5.70148 5.41489 5.92432 5.32054 6.15777 5.31669L9.05514 5.28906C9.60855 5.314 10.1363 5.52962 10.5488 5.89933L15.5067 10.8572C15.67 11.0217 15.7616 11.244 15.7616 11.4758C15.7616 11.7075 15.67 11.9299 15.5067 12.0943ZM7.59935 7.05196C7.59935 6.92829 7.56268 6.8074 7.49398 6.70458C7.42527 6.60176 7.32762 6.52161 7.21337 6.47429C7.09912 6.42696 6.9734 6.41458 6.85211 6.43871C6.73082 6.46283 6.61941 6.52238 6.53196 6.60983C6.44452 6.69727 6.38497 6.80869 6.36084 6.92997C6.33671 7.05126 6.3491 7.17698 6.39642 7.29123C6.44375 7.40549 6.52389 7.50314 6.62671 7.57184C6.72954 7.64055 6.85042 7.67722 6.97409 7.67722C7.13992 7.67722 7.29896 7.61134 7.41622 7.49408C7.53348 7.37683 7.59935 7.21779 7.59935 7.05196ZM12.8051 12.853C12.8458 12.8124 12.8781 12.7641 12.9001 12.711C12.9221 12.6579 12.9335 12.601 12.9335 12.5435C12.9335 12.486 12.9221 12.4291 12.9001 12.376C12.8781 12.3229 12.8458 12.2747 12.8051 12.2341L12.4886 11.9175C12.6191 11.7173 12.7127 11.4954 12.7649 11.2622C12.8205 11.0543 12.8209 10.8354 12.7659 10.6273C12.7109 10.4191 12.6025 10.229 12.4515 10.0756C12.2365 9.86154 11.9513 9.73253 11.6486 9.71248C11.4488 9.69959 11.2483 9.72232 11.0565 9.77959H11.0549C10.8905 9.83136 10.7339 9.90491 10.5891 9.99827H10.5867C10.4618 10.0798 10.3459 10.1742 10.2409 10.2801C10.1777 10.3436 10.1093 10.4017 10.0365 10.4538C9.95678 10.5108 9.8693 10.556 9.77672 10.588H9.77514C9.6892 10.6162 9.59836 10.6264 9.5083 10.618H9.50672C9.41449 10.6106 9.32731 10.5729 9.25883 10.5106C9.20872 10.4541 9.17455 10.3853 9.15985 10.3112C9.14514 10.2371 9.15042 10.1604 9.17514 10.0891C9.23041 9.8764 9.34226 9.6827 9.49883 9.52854C9.55547 9.47994 9.61622 9.43635 9.68041 9.39827L9.70409 9.38327C9.78451 9.33407 9.86968 9.29308 9.9583 9.2609C10.0404 9.23012 10.1272 9.21408 10.2149 9.21354C10.3309 9.21354 10.4421 9.16746 10.5241 9.08543C10.6062 9.00341 10.6522 8.89216 10.6522 8.77617C10.6522 8.66017 10.6062 8.54892 10.5241 8.4669C10.4421 8.38488 10.3309 8.3388 10.2149 8.3388C10.0215 8.33957 9.82902 8.37486 9.64804 8.44301C9.5021 8.49679 9.36214 8.56558 9.23041 8.64827L9.22251 8.65301L8.9083 8.33722C8.86761 8.29658 8.81931 8.26435 8.76616 8.24238C8.71301 8.2204 8.65606 8.20911 8.59855 8.20915C8.54104 8.20918 8.4841 8.22055 8.43098 8.24259C8.37786 8.26463 8.3296 8.29692 8.28896 8.33761C8.24832 8.37831 8.21609 8.42661 8.19411 8.47975C8.17214 8.5329 8.16085 8.58986 8.16089 8.64737C8.16092 8.70488 8.17229 8.76182 8.19433 8.81494C8.21637 8.86806 8.24866 8.91632 8.28935 8.95696L8.59567 9.26248C8.46799 9.45616 8.37527 9.67072 8.32172 9.89643C8.26455 10.1119 8.26387 10.3385 8.31973 10.5544C8.3756 10.7703 8.48613 10.9681 8.64067 11.1288C8.85043 11.3342 9.12442 11.4613 9.41672 11.4888C9.63115 11.5108 9.8478 11.4868 10.0522 11.4185C10.228 11.3594 10.394 11.2746 10.5449 11.1667C10.6569 11.0864 10.762 10.9968 10.8591 10.8991C10.9205 10.8374 10.9882 10.7823 11.0612 10.7349C11.1399 10.6844 11.2249 10.6444 11.3138 10.6156C11.403 10.5899 11.4959 10.5798 11.5886 10.5856C11.6802 10.5919 11.7664 10.6308 11.8317 10.6954C11.8712 10.7341 11.962 10.8256 11.9083 11.0806C11.8542 11.2987 11.7414 11.4977 11.5822 11.6562C11.5128 11.719 11.4389 11.7768 11.3612 11.8291C11.285 11.8783 11.2041 11.9198 11.1196 11.953C11.0392 11.984 10.9526 11.9953 10.867 11.9862C10.8097 11.982 10.7521 11.9892 10.6975 12.0073C10.643 12.0254 10.5925 12.0541 10.549 12.0917C10.5056 12.1293 10.4699 12.1751 10.4441 12.2265C10.4184 12.2779 10.403 12.3338 10.3988 12.3912C10.3947 12.4485 10.4019 12.5061 10.42 12.5606C10.4381 12.6152 10.4668 12.6657 10.5044 12.7091C10.542 12.7526 10.5878 12.7882 10.6392 12.814C10.6905 12.8398 10.7465 12.8552 10.8038 12.8593C10.8449 12.8625 10.8851 12.8633 10.9238 12.8633C11.1094 12.8653 11.2935 12.8293 11.4646 12.7575C11.6053 12.701 11.7395 12.6295 11.8649 12.5443L11.8728 12.5388L12.1862 12.853C12.2683 12.9347 12.3794 12.9806 12.4953 12.9806C12.6111 12.9806 12.7222 12.9347 12.8044 12.853H12.8051Z" fill="#666666"/>
</svg>
