<svg width="30" height="30" viewBox="0 0 30 30" fill="none" xmlns="http://www.w3.org/2000/svg">
<path d="M25.0137 18.1887L18.0837 25.1171C17.7548 25.4436 17.3101 25.6269 16.8466 25.6269C16.3831 25.6269 15.9384 25.4436 15.6095 25.1171L5.69369 15.2013C4.95395 14.3767 4.52364 13.3207 4.47632 12.2139L4.54421 6.40181C4.55274 5.93492 4.74223 5.48958 5.07272 5.15968C5.40321 4.82978 5.84889 4.64109 6.31579 4.63339L12.1105 4.57812C13.2173 4.628 14.2728 5.05923 15.0979 5.79865L25.0137 15.7144C25.3403 16.0433 25.5235 16.488 25.5235 16.9515C25.5235 17.415 25.3403 17.8597 25.0137 18.1887ZM9.19895 8.10391C9.19895 7.85658 9.12561 7.61481 8.9882 7.40916C8.85079 7.20351 8.65548 7.04323 8.42698 6.94858C8.19848 6.85393 7.94704 6.82916 7.70446 6.87742C7.46188 6.92567 7.23906 7.04477 7.06417 7.21966C6.88928 7.39455 6.77018 7.61737 6.72193 7.85995C6.67367 8.10253 6.69844 8.35397 6.79309 8.58247C6.88774 8.81097 7.04802 9.00628 7.25367 9.14369C7.45932 9.2811 7.70109 9.35444 7.94842 9.35444C8.28008 9.35444 8.59816 9.22269 8.83268 8.98817C9.0672 8.75365 9.19895 8.43557 9.19895 8.10391ZM19.6105 19.706C19.6919 19.6248 19.7564 19.5283 19.8005 19.4221C19.8445 19.3159 19.8671 19.202 19.8671 19.0871C19.8671 18.9721 19.8445 18.8583 19.8005 18.7521C19.7564 18.6458 19.6919 18.5494 19.6105 18.4681L18.9774 17.835C19.2385 17.4347 19.4257 16.9908 19.53 16.5244C19.6413 16.1085 19.642 15.6708 19.5321 15.2545C19.4221 14.8383 19.2053 14.458 18.9032 14.1513C18.4733 13.7231 17.9028 13.4651 17.2974 13.425C16.8978 13.3992 16.4968 13.4446 16.1132 13.5592H16.11C15.7813 13.6627 15.468 13.8098 15.1784 13.9965H15.1737C14.9239 14.1595 14.6921 14.3485 14.4821 14.5602C14.3557 14.6872 14.2189 14.8034 14.0732 14.9076C13.9138 15.0216 13.7389 15.112 13.5537 15.176H13.5505C13.3786 15.2324 13.197 15.2528 13.0168 15.236H13.0137C12.8292 15.2212 12.6549 15.1457 12.5179 15.0213C12.4177 14.9082 12.3494 14.7706 12.3199 14.6224C12.2905 14.4742 12.3011 14.3209 12.3505 14.1781C12.4611 13.7528 12.6848 13.3654 12.9979 13.0571C13.1112 12.9599 13.2327 12.8727 13.3611 12.7965L13.4084 12.7665C13.5693 12.6681 13.7396 12.5862 13.9168 12.5218C14.081 12.4602 14.2547 12.4282 14.43 12.4271C14.662 12.4271 14.8845 12.3349 15.0485 12.1709C15.2126 12.0068 15.3047 11.7843 15.3047 11.5523C15.3047 11.3203 15.2126 11.0978 15.0485 10.9338C14.8845 10.7698 14.662 10.6776 14.43 10.6776C14.0432 10.6791 13.6583 10.7497 13.2963 10.886C13.0044 10.9936 12.7245 11.1312 12.4611 11.2965L12.4453 11.306L11.8168 10.6744C11.7355 10.5932 11.6389 10.5287 11.5326 10.4848C11.4263 10.4408 11.3124 10.4182 11.1973 10.4183C11.0823 10.4184 10.9684 10.4411 10.8622 10.4852C10.756 10.5293 10.6594 10.5938 10.5782 10.6752C10.4969 10.7566 10.4324 10.8532 10.3885 10.9595C10.3445 11.0658 10.3219 11.1797 10.322 11.2947C10.3221 11.4098 10.3448 11.5236 10.3889 11.6299C10.433 11.7361 10.4976 11.8326 10.5789 11.9139L11.1916 12.525C10.9362 12.9123 10.7508 13.3414 10.6437 13.7929C10.5294 14.2239 10.528 14.6771 10.6397 15.1088C10.7514 15.5405 10.9725 15.9362 11.2816 16.2576C11.7011 16.6684 12.2491 16.9226 12.8337 16.9776C13.2625 17.0216 13.6958 16.9737 14.1047 16.8371C14.4563 16.7189 14.7883 16.5491 15.09 16.3334C15.314 16.1727 15.5242 15.9937 15.7184 15.7981C15.8412 15.6748 15.9767 15.5647 16.1226 15.4697C16.2801 15.3689 16.45 15.2888 16.6279 15.2313C16.8062 15.1799 16.9921 15.1596 17.1774 15.1713C17.3605 15.1838 17.5331 15.2617 17.6637 15.3908C17.7426 15.4681 17.9242 15.6513 17.8168 16.1613C17.7087 16.5973 17.4831 16.9954 17.1647 17.3123C17.0258 17.438 16.8781 17.5536 16.7226 17.6581C16.5702 17.7566 16.4084 17.8397 16.2395 17.906C16.0787 17.9679 15.9055 17.9907 15.7342 17.9723C15.6195 17.964 15.5044 17.9784 15.3953 18.0146C15.2862 18.0508 15.1852 18.1082 15.0983 18.1834C15.0114 18.2586 14.9401 18.3502 14.8885 18.453C14.837 18.5558 14.8062 18.6677 14.7979 18.7823C14.7896 18.897 14.804 19.0122 14.8402 19.1213C14.8764 19.2304 14.9338 19.3313 15.009 19.4183C15.0842 19.5052 15.1758 19.5765 15.2786 19.628C15.3813 19.6796 15.4932 19.7104 15.6079 19.7187C15.69 19.725 15.7705 19.7265 15.8479 19.7265C16.2191 19.7305 16.5872 19.6585 16.9295 19.515C17.2108 19.402 17.4792 19.259 17.73 19.0887L17.7458 19.0776L18.3726 19.706C18.5369 19.8694 18.7591 19.9612 18.9908 19.9612C19.2225 19.9612 19.4447 19.8694 19.6089 19.706H19.6105Z" fill="#6C6C6C"/>
</svg>
