<svg width="43" height="43" viewBox="0 0 43 43" fill="none" xmlns="http://www.w3.org/2000/svg">
<rect width="43" height="43" rx="21.5" fill="#F5F5F5"/>
<g clip-path="url(#clip0_560_576)">
<path d="M32.5208 29.1667H29.1667H18.1458H17.6667V29.6458V30.494C17.6667 31.1274 17.3447 31.6449 16.8617 31.8883C16.8377 31.8998 16.8166 31.9152 16.7927 31.9257C16.7572 31.941 16.7179 31.9487 16.6805 31.9612C16.6269 31.9794 16.5751 31.9995 16.5195 32.011C16.4266 32.0311 16.3298 32.0417 16.2292 32.0417C15.9647 32.0417 15.75 31.827 15.75 31.5625C15.75 31.298 15.9647 31.0833 16.2292 31.0833C16.5828 31.0833 16.7083 30.7661 16.7083 30.494V28.6875C16.7083 28.423 16.923 28.2083 17.1875 28.2083H29.1667V24.491L27.7876 25.87C27.6314 26.0272 27.4369 26.147 27.226 26.2169L24.351 27.1753C24.2073 27.2251 24.053 27.25 23.8958 27.25C23.5135 27.25 23.1531 27.1015 22.881 26.8302C22.4919 26.4412 22.3587 25.8786 22.5312 25.3592L23.2116 23.3199C23.133 23.3764 23.042 23.4167 22.9375 23.4167H17.1875C16.923 23.4167 16.7083 23.202 16.7083 22.9375C16.7083 22.673 16.923 22.4583 17.1875 22.4583H22.9375C23.1512 22.4583 23.3256 22.6002 23.387 22.7918L23.4905 22.4823C23.5585 22.2734 23.6792 22.0788 23.8374 21.9207L28.2083 17.5507L29.1667 16.5924V12.5875V12.3958C29.1667 11.0752 28.0924 10 26.7708 10H14.3125H12.3958C11.0743 10 10 11.0752 10 12.3958V13.3542C10 13.6187 10.2147 13.8333 10.4792 13.8333H12.875V12.3958C12.875 12.1313 12.6594 11.9167 12.3958 11.9167C12.1313 11.9167 11.9167 11.702 11.9167 11.4375C11.9167 11.173 12.1313 10.9583 12.3958 10.9583C13.1884 10.9583 13.8333 11.6033 13.8333 12.3958V13.8333V14.3125V30.6042C13.8333 31.9247 14.9076 33 16.2292 33H30.6042C31.9257 33 33 31.9247 33 30.6042V29.6458C33 29.3813 32.7853 29.1667 32.5208 29.1667ZM24.375 14.3125C24.375 14.577 24.1603 14.7917 23.8958 14.7917H19.1042C18.8397 14.7917 18.625 14.577 18.625 14.3125C18.625 14.048 18.8397 13.8333 19.1042 13.8333H23.8958C24.1603 13.8333 24.375 14.048 24.375 14.3125ZM24.8542 20.5417H17.1875C16.923 20.5417 16.7083 20.327 16.7083 20.0625C16.7083 19.798 16.923 19.5833 17.1875 19.5833H24.8542C25.1187 19.5833 25.3333 19.798 25.3333 20.0625C25.3333 20.327 25.1187 20.5417 24.8542 20.5417ZM25.8125 17.6667H17.1875C16.923 17.6667 16.7083 17.452 16.7083 17.1875C16.7083 16.923 16.923 16.7083 17.1875 16.7083H25.8125C26.077 16.7083 26.2917 16.923 26.2917 17.1875C26.2917 17.452 26.077 17.6667 25.8125 17.6667Z" fill="#666666"/>
<path d="M27.4485 24.8546L32.4625 19.8406C32.8084 19.4947 32.9991 19.0356 32.9991 18.5459C32.9991 18.0562 32.8084 17.5972 32.4577 17.2464C31.7447 16.5324 30.5822 16.5324 29.8692 17.2464L24.8542 22.2604L27.4485 24.8546Z" fill="#666666"/>
<path d="M23.4406 25.6606C23.3831 25.8331 23.4282 26.0229 23.5566 26.1513C23.6486 26.2423 23.7703 26.2912 23.8958 26.2912C23.9466 26.2912 23.9974 26.2835 24.0473 26.2663L26.6415 25.4019L24.306 23.0664L23.4406 25.6606Z" fill="#666666"/>
</g>
<defs>
<clipPath id="clip0_560_576">
<rect width="23" height="23.9583" fill="white" transform="translate(10 10)"/>
</clipPath>
</defs>
</svg>
