<svg width="15" height="15" viewBox="0 0 15 15" fill="none" xmlns="http://www.w3.org/2000/svg">
<g clip-path="url(#clip0_43_30)">
<path d="M5.3572 0.535645H1.6072C1.32303 0.535645 1.05051 0.648527 0.849581 0.849459C0.648649 1.05039 0.535767 1.32291 0.535767 1.60707V5.35707C0.535767 5.64123 0.648649 5.91376 0.849581 6.11469C1.05051 6.31562 1.32303 6.4285 1.6072 6.4285H5.3572C5.64136 6.4285 5.91388 6.31562 6.11481 6.11469C6.31574 5.91376 6.42862 5.64123 6.42862 5.35707V1.60707C6.42862 1.32291 6.31574 1.05039 6.11481 0.849459C5.91388 0.648527 5.64136 0.535645 5.3572 0.535645Z" stroke="#F99832" stroke-width="1.71429" stroke-linecap="round" stroke-linejoin="round"/>
<path d="M13.393 8.57129H9.64296C9.3588 8.57129 9.08628 8.68417 8.88535 8.8851C8.68442 9.08604 8.57153 9.35856 8.57153 9.64272V13.3927C8.57153 13.6769 8.68442 13.9494 8.88535 14.1503C9.08628 14.3513 9.3588 14.4641 9.64296 14.4641H13.393C13.6771 14.4641 13.9496 14.3513 14.1506 14.1503C14.3515 13.9494 14.4644 13.6769 14.4644 13.3927V9.64272C14.4644 9.35856 14.3515 9.08604 14.1506 8.8851C13.9496 8.68417 13.6771 8.57129 13.393 8.57129Z" stroke="#F99832" stroke-width="1.71429" stroke-linecap="round" stroke-linejoin="round"/>
<path d="M5.3572 8.57129H1.6072C1.32303 8.57129 1.05051 8.68417 0.849581 8.8851C0.648649 9.08604 0.535767 9.35856 0.535767 9.64272V13.3927C0.535767 13.6769 0.648649 13.9494 0.849581 14.1503C1.05051 14.3513 1.32303 14.4641 1.6072 14.4641H5.3572C5.64136 14.4641 5.91388 14.3513 6.11481 14.1503C6.31574 13.9494 6.42862 13.6769 6.42862 13.3927V9.64272C6.42862 9.35856 6.31574 9.08604 6.11481 8.8851C5.91388 8.68417 5.64136 8.57129 5.3572 8.57129Z" stroke="#F99832" stroke-width="1.71429" stroke-linecap="round" stroke-linejoin="round"/>
<path d="M11.5179 6.4285V0.535645" stroke="#F99832" stroke-width="1.71429" stroke-linecap="round" stroke-linejoin="round"/>
<path d="M8.57153 3.48218H14.4644" stroke="#F99832" stroke-width="1.71429" stroke-linecap="round" stroke-linejoin="round"/>
</g>
<defs>
<clipPath id="clip0_43_30">
<rect width="15" height="15" fill="white"/>
</clipPath>
</defs>
</svg>
