<svg width="43" height="43" viewBox="0 0 43 43" fill="none" xmlns="http://www.w3.org/2000/svg">
<rect width="43" height="43" rx="21.5" fill="#F5F5F5"/>
<path d="M31.9546 18.4142C31.8255 14.2425 27.2818 11 21.5 11C15.7182 11 11.1745 14.2425 11.0454 18.4142C10.4675 18.4237 10 18.8961 10 19.4764V19.7937C10 20.372 10.4642 20.8427 11.0394 20.8557V21.4971V31.1849H10.1825C10.0818 31.1849 10 31.2667 10 31.3674V32.505C10 32.6058 10.0818 32.6875 10.1825 32.6875H32.8175C32.9182 32.6875 33 32.6058 33 32.505V31.3674C33 31.2667 32.9182 31.1849 32.8175 31.1849H31.9606V21.4971V20.8557C32.5358 20.8427 33 20.372 33 19.7937V19.4764C33 18.8961 32.5325 18.4237 31.9546 18.4142ZM21.5 11.3651C27.0755 11.3651 31.4581 14.4465 31.5893 18.4133H28.6309C28.6169 17.871 28.4891 17.352 28.2633 16.8676C28.2627 16.865 28.2635 16.8626 28.2627 16.8601C28.256 16.8352 28.2443 16.8133 28.2291 16.7944C27.9039 16.1306 27.3937 15.5343 26.7402 15.0345C26.725 15.0186 26.7084 15.0058 26.6894 14.9965C25.3981 14.0292 23.5653 13.4336 21.5 13.4336C19.4347 13.4336 17.6019 14.0292 16.3106 14.9965C16.2914 15.0058 16.275 15.0186 16.2598 15.0345C15.6063 15.5345 15.0961 16.1308 14.7709 16.7945C14.7557 16.8133 14.744 16.8352 14.7373 16.8601C14.7365 16.8626 14.7373 16.865 14.7367 16.8676C14.5109 17.352 14.3831 17.8708 14.3691 18.4133H11.4107C11.5419 14.4465 15.9245 11.3651 21.5 11.3651ZM14.7342 18.4133C14.7469 17.9644 14.8444 17.5327 15.0184 17.1258L18.8654 18.1731C18.8433 18.2516 18.8278 18.3319 18.8183 18.4133H14.7342ZM16.3987 15.3842L19.3537 17.3719C19.2126 17.5127 19.0941 17.6667 19.0047 17.8325L15.1819 16.792C15.468 16.2694 15.8818 15.7942 16.3987 15.3842ZM24.0196 14.126L22.4487 16.6949C22.2075 16.6261 21.9507 16.5828 21.6825 16.5693V13.802C22.5107 13.8164 23.2971 13.9296 24.0196 14.126ZM27.8181 16.792L23.9953 17.8325C23.9061 17.6667 23.7876 17.5127 23.6463 17.3719L26.6013 15.3842C27.1182 15.7942 27.532 16.2694 27.8181 16.792ZM23.3573 17.1264C23.1907 17.0063 23.0049 16.9015 22.8019 16.8166L24.3821 14.2326C25.0975 14.4615 25.742 14.7735 26.2909 15.153L23.3573 17.1264ZM21.3175 16.934V18.2532L19.9658 17.344C20.333 17.1125 20.8014 16.9628 21.3175 16.934ZM21.6825 16.934C22.1986 16.9628 22.667 17.1125 23.0342 17.3438L21.6825 18.253V16.934ZM21.3175 16.5691C21.0493 16.5828 20.7925 16.6261 20.5513 16.6947L18.9804 14.1258C19.7029 13.9294 20.4893 13.8164 21.3175 13.8016V16.5691ZM18.6179 14.2328L20.1981 16.8168C19.9953 16.9017 19.8093 17.0065 19.6427 17.1266L16.7091 15.1531C17.258 14.7736 17.9027 14.4617 18.6179 14.2328ZM19.6593 17.5775L20.9016 18.4131H19.1858C19.2336 18.1004 19.4035 17.8142 19.6593 17.5775ZM23.3407 17.5775C23.5965 17.8142 23.7664 18.1004 23.8142 18.4131H22.0984L23.3407 17.5775ZM24.1817 18.4133C24.172 18.3317 24.1567 18.2516 24.1346 18.1731L27.9816 17.1258C28.1556 17.5327 28.2531 17.9644 28.2658 18.4133H24.1817ZM11.0633 18.7784H31.9369C32.3137 18.7784 32.6198 19.0788 32.6325 19.4525H10.3675C10.3804 19.0788 10.6865 18.7784 11.0633 18.7784ZM31.5955 21.3146H11.4045V20.857H31.5955V21.3146ZM32.6349 32.3226H10.3651V31.5501H13.099H14.4301H15.6642H16.9953H18.2552H24.7448H26.0047H27.3358H28.5699H29.901H32.6349V32.3226ZM14.2475 31.1849H13.2815V26.015H14.2475V31.1849ZM16.8127 31.1849H15.8467V26.015H16.8127V31.1849ZM24.3016 26.9065H18.6984H18.2838V26.0449H24.7162V26.9065H24.3016ZM18.8809 27.2716H24.1191V30.3063H23.3621V29.3075C23.3621 28.422 22.6418 27.7018 21.7565 27.7018H21.2435C20.3582 27.7018 19.6379 28.4221 19.6379 29.3075V30.3063H18.8809V27.2716ZM20.003 30.3063V29.3075C20.003 28.6233 20.5596 28.0669 21.2435 28.0669H21.3175V30.3063H20.003ZM21.6825 28.0669H21.7565C22.4404 28.0669 22.997 28.6235 22.997 29.3075V30.3063H21.6825V28.0669ZM18.6984 30.6714H19.8205H23.1794H24.3014H24.5621V31.1849H18.4377V30.6714H18.6984ZM27.1533 31.1849H26.1873V26.015H27.1533V31.1849ZM29.7185 31.1849H28.7525V26.015H29.7185V31.1849ZM30.0836 31.1849V25.8324C30.0836 25.7317 30.0018 25.6499 29.901 25.6499H28.5699C28.4692 25.6499 28.3874 25.7317 28.3874 25.8324V31.1849H27.5183V25.8324C27.5183 25.7317 27.4366 25.6499 27.3358 25.6499H26.0047C25.904 25.6499 25.8222 25.7317 25.8222 25.8324V31.1849H24.9274V30.4888C24.9274 30.3881 24.8456 30.3063 24.7448 30.3063H24.4842V27.2716H24.8987C24.9995 27.2716 25.0812 27.1898 25.0812 27.089V25.8624C25.0812 25.7616 24.9995 25.6798 24.8987 25.6798H18.1013C18.0005 25.6798 17.9188 25.7616 17.9188 25.8624V27.089C17.9188 27.1898 18.0005 27.2716 18.1013 27.2716H18.5158V30.3063H18.2552C18.1544 30.3063 18.0726 30.3881 18.0726 30.4888V31.1849H17.1778V25.8324C17.1778 25.7317 17.096 25.6499 16.9953 25.6499H15.6642C15.5634 25.6499 15.4817 25.7317 15.4817 25.8324V31.1849H14.6126V25.8324C14.6126 25.7317 14.5308 25.6499 14.4301 25.6499H13.099C12.9982 25.6499 12.9164 25.7317 12.9164 25.8324V31.1849H11.4045V21.6797H31.5955V31.1849H30.0836ZM31.9367 20.4919H31.7781H11.2219H11.0633C10.6865 20.4919 10.3804 20.1912 10.3676 19.8176H32.6327C32.6196 20.1912 32.3135 20.4919 31.9367 20.4919Z" fill="black"/>
<path d="M14.4299 22.7812H13.0988C12.998 22.7812 12.9163 22.863 12.9163 22.9638V24.9098C12.9163 25.0106 12.998 25.0924 13.0988 25.0924H14.4299C14.5306 25.0924 14.6124 25.0106 14.6124 24.9098V22.9638C14.6124 22.8628 14.5306 22.7812 14.4299 22.7812ZM14.2473 24.7273H13.2813V23.1463H14.2473V24.7273Z" fill="black"/>
<path d="M16.9953 22.7812H15.6642C15.5635 22.7812 15.4817 22.863 15.4817 22.9638V24.9098C15.4817 25.0106 15.5635 25.0924 15.6642 25.0924H16.9953C17.0961 25.0924 17.1778 25.0106 17.1778 24.9098V22.9638C17.1778 22.8628 17.0963 22.7812 16.9953 22.7812ZM16.8128 24.7273H15.8468V23.1463H16.8128V24.7273Z" fill="black"/>
<path d="M22.1661 22.7812H20.8349C20.7341 22.7812 20.6523 22.863 20.6523 22.9638V24.9098C20.6523 25.0106 20.7341 25.0924 20.8349 25.0924H22.1661C22.2669 25.0924 22.3487 25.0106 22.3487 24.9098V22.9638C22.3487 22.8628 22.2671 22.7812 22.1661 22.7812ZM21.9836 24.7273H21.0174V23.1463H21.9836V24.7273Z" fill="black"/>
<path d="M19.6542 22.7812H18.3232C18.2224 22.7812 18.1406 22.863 18.1406 22.9638V24.9098C18.1406 25.0106 18.2224 25.0924 18.3232 25.0924H19.6542C19.755 25.0924 19.8368 25.0106 19.8368 24.9098V22.9638C19.8368 22.8628 19.755 22.7812 19.6542 22.7812ZM19.4717 24.7273H18.5057V23.1463H19.4717V24.7273Z" fill="black"/>
<path d="M29.9011 22.7812H28.57C28.4692 22.7812 28.3875 22.863 28.3875 22.9638V24.9098C28.3875 25.0106 28.4692 25.0924 28.57 25.0924H29.9011C30.0018 25.0924 30.0836 25.0106 30.0836 24.9098V22.9638C30.0836 22.8628 30.002 22.7812 29.9011 22.7812ZM29.7185 24.7273H28.7525V23.1463H29.7185V24.7273Z" fill="black"/>
<path d="M27.3359 22.7812H26.0048C25.904 22.7812 25.8223 22.863 25.8223 22.9638V24.9098C25.8223 25.0106 25.904 25.0924 26.0048 25.0924H27.3359C27.4366 25.0924 27.5184 25.0106 27.5184 24.9098V22.9638C27.5184 22.8628 27.4366 22.7812 27.3359 22.7812ZM27.1533 24.7273H26.1873V23.1463H27.1533V24.7273Z" fill="black"/>
<path d="M24.6769 22.7812H23.3459C23.2451 22.7812 23.1633 22.863 23.1633 22.9638V24.9098C23.1633 25.0106 23.2451 25.0924 23.3459 25.0924H24.6769C24.7777 25.0924 24.8595 25.0106 24.8595 24.9098V22.9638C24.8595 22.8628 24.7779 22.7812 24.6769 22.7812ZM24.4944 24.7273H23.5284V23.1463H24.4944V24.7273Z" fill="black"/>
</svg>
