<svg width="43" height="43" viewBox="0 0 43 43" fill="none" xmlns="http://www.w3.org/2000/svg">
<rect width="43" height="43" rx="21.5" fill="#F5F5F5"/>
<g clip-path="url(#clip0_571_571)">
<path d="M9.31305 33.9551H32.9916" stroke="#6C6C6C" stroke-width="2" stroke-linecap="round" stroke-linejoin="round"/>
<path d="M15.1685 19.5622L21.1524 14.8613L27.1363 19.5622" stroke="#6C6C6C" stroke-width="2" stroke-linecap="round" stroke-linejoin="round"/>
<path d="M16.0786 23.5098H26.2265V33.9562H16.0786V23.5098Z" stroke="#6C6C6C" stroke-width="2" stroke-linecap="round" stroke-linejoin="round"/>
<path d="M14.0139 19.5625H28.2907V23.5028H14.0139V19.5625Z" stroke="#6C6C6C" stroke-width="2" stroke-linecap="round" stroke-linejoin="round"/>
<path d="M11.0043 23.502V33.9545" stroke="#6C6C6C" stroke-width="2" stroke-linecap="round" stroke-linejoin="round"/>
<path d="M31.3003 23.502V33.9506" stroke="#6C6C6C" stroke-width="2" stroke-linecap="round" stroke-linejoin="round"/>
<path d="M9.31305 23.502H32.9916" stroke="#6C6C6C" stroke-width="2" stroke-linecap="round" stroke-linejoin="round"/>
<path d="M21.1525 14.8617L21.1523 10.252" stroke="#6C6C6C" stroke-width="2" stroke-linecap="round" stroke-linejoin="round"/>
<path d="M21.1525 10.252H23.4747" stroke="#6C6C6C" stroke-width="2" stroke-linecap="round" stroke-linejoin="round"/>
<path d="M19.3201 29.8048C19.3201 28.8502 20.0941 28.0762 21.0488 28.0762C22.0035 28.0762 22.7774 28.8502 22.7774 29.8048V33.9546H19.3201V29.8048Z" stroke="#6C6C6C" stroke-width="2" stroke-linecap="round" stroke-linejoin="round"/>
</g>
<defs>
<clipPath id="clip0_571_571">
<rect width="26" height="26" fill="white" transform="translate(8 9)"/>
</clipPath>
</defs>
</svg>
