<svg width="25" height="25" viewBox="0 0 25 25" fill="none" xmlns="http://www.w3.org/2000/svg">
<path d="M23.8637 8.05893C23.7234 3.52441 18.7845 0 12.5 0C6.21548 0 1.27659 3.52441 1.13631 8.05893C0.508135 8.06925 0 8.58274 0 9.21349V9.55833C0 10.1869 0.504563 10.6986 1.12976 10.7127V11.4099V21.9401H0.198413C0.0888889 21.9401 0 22.029 0 22.1385V23.375C0 23.4845 0.0888889 23.5734 0.198413 23.5734H24.8016C24.9111 23.5734 25 23.4845 25 23.375V22.1385C25 22.029 24.9111 21.9401 24.8016 21.9401H23.8702V11.4099V10.7127C24.4954 10.6986 25 10.1869 25 9.55833V9.21349C25 8.58274 24.4919 8.06925 23.8637 8.05893ZM12.5 0.396825C18.5603 0.396825 23.324 3.74623 23.4667 8.05794H20.251C20.2357 7.46845 20.0968 6.90437 19.8514 6.37778C19.8508 6.375 19.8516 6.37242 19.8508 6.36964C19.8435 6.34266 19.8308 6.31885 19.8143 6.29821C19.4607 5.57679 18.9062 4.92857 18.1958 4.38532C18.1794 4.36806 18.1613 4.35417 18.1407 4.34405C16.7371 3.29266 14.7448 2.64524 12.5 2.64524C10.2552 2.64524 8.2629 3.29266 6.85933 4.34405C6.83849 4.35417 6.82063 4.36806 6.80417 4.38532C6.09385 4.92877 5.53929 5.57698 5.18571 6.29841C5.16925 6.31885 5.15655 6.34266 5.14921 6.36964C5.14841 6.37242 5.14921 6.375 5.14861 6.37778C4.90317 6.90437 4.76429 7.46825 4.74901 8.05794H1.53333C1.67599 3.74623 6.43968 0.396825 12.5 0.396825ZM5.14583 8.05794C5.15972 7.57004 5.26567 7.10079 5.45476 6.65853L9.63631 7.79683C9.6123 7.88214 9.59544 7.96944 9.58512 8.05794H5.14583ZM6.95516 4.76548L10.1671 6.92599C10.0137 7.07897 9.88492 7.24643 9.7877 7.42659L5.63254 6.29563C5.94345 5.72758 6.39325 5.21111 6.95516 4.76548ZM15.2387 3.39782L13.5312 6.19008C13.269 6.11528 12.9899 6.06825 12.6984 6.05357V3.04563C13.5986 3.06131 14.4534 3.18433 15.2387 3.39782ZM19.3675 6.29563L15.2123 7.42659C15.1153 7.24643 14.9865 7.07897 14.8329 6.92599L18.0448 4.76548C18.6067 5.21111 19.0565 5.72758 19.3675 6.29563ZM14.5189 6.65913C14.3377 6.52857 14.1357 6.41468 13.9151 6.32242L15.6327 3.51369C16.4103 3.7625 17.1109 4.10159 17.7075 4.51409L14.5189 6.65913ZM12.3016 6.45V7.88393L10.8323 6.89564C11.2315 6.64405 11.7407 6.48135 12.3016 6.45ZM12.6984 6.45C13.2593 6.48135 13.7685 6.64405 14.1677 6.89544L12.6984 7.88373V6.45ZM12.3016 6.05337C12.0101 6.06825 11.731 6.11528 11.4689 6.18988L9.76131 3.39762C10.5466 3.18413 11.4014 3.06131 12.3016 3.04524V6.05337ZM9.36726 3.51389L11.0849 6.32262C10.8645 6.41488 10.6623 6.52877 10.4812 6.65933L7.29246 4.51429C7.88909 4.10179 8.58988 3.7627 9.36726 3.51389ZM10.4992 7.14941L11.8496 8.05774H9.98452C10.0365 7.71786 10.2212 7.40675 10.4992 7.14941ZM14.5008 7.14941C14.7788 7.40675 14.9635 7.71786 15.0155 8.05774H13.1504L14.5008 7.14941ZM15.4149 8.05794C15.4044 7.96925 15.3877 7.88214 15.3637 7.79683L19.5452 6.65853C19.7343 7.10079 19.8403 7.57004 19.8542 8.05794H15.4149ZM1.15575 8.45476H23.8444C24.254 8.45476 24.5867 8.78135 24.6006 9.1875H0.399405C0.413492 8.78135 0.74623 8.45476 1.15575 8.45476ZM23.4734 11.2115H1.52659V10.7141H23.4734V11.2115ZM24.6032 23.1768H0.396825V22.3371H3.36845H4.81528H6.15675H7.60357H8.97302H16.027H17.3964H18.8433H20.1847H21.6315H24.6032V23.1768ZM4.61687 21.9401H3.56686V16.3206H4.61687V21.9401ZM7.40516 21.9401H6.35516V16.3206H7.40516V21.9401ZM15.5452 17.2897H9.45476H9.00417V16.3532H15.9958V17.2897H15.5452ZM9.65317 17.6865H15.3468V20.9851H14.524V19.8994C14.524 18.9369 13.7411 18.1542 12.7788 18.1542H12.2212C11.2589 18.1542 10.476 18.9371 10.476 19.8994V20.9851H9.65317V17.6865ZM10.8728 20.9851V19.8994C10.8728 19.1558 11.4778 18.551 12.2212 18.551H12.3016V20.9851H10.8728ZM12.6984 18.551H12.7788C13.5222 18.551 14.1272 19.156 14.1272 19.8994V20.9851H12.6984V18.551ZM9.45476 21.3819H10.6744H14.3254H15.545H15.8284V21.9401H9.17143V21.3819H9.45476ZM18.6448 21.9401H17.5948V16.3206H18.6448V21.9401ZM21.4331 21.9401H20.3831V16.3206H21.4331V21.9401ZM21.83 21.9401V16.1222C21.83 16.0127 21.7411 15.9238 21.6315 15.9238H20.1847C20.0752 15.9238 19.9863 16.0127 19.9863 16.1222V21.9401H19.0417V16.1222C19.0417 16.0127 18.9528 15.9238 18.8433 15.9238H17.3964C17.2869 15.9238 17.198 16.0127 17.198 16.1222V21.9401H16.2254V21.1835C16.2254 21.074 16.1365 20.9851 16.027 20.9851H15.7437V17.6865H16.1942C16.3038 17.6865 16.3927 17.5976 16.3927 17.4881V16.1548C16.3927 16.0452 16.3038 15.9563 16.1942 15.9563H8.80575C8.69623 15.9563 8.60734 16.0452 8.60734 16.1548V17.4881C8.60734 17.5976 8.69623 17.6865 8.80575 17.6865H9.25635V20.9851H8.97302C8.86349 20.9851 8.7746 21.074 8.7746 21.1835V21.9401H7.80198V16.1222C7.80198 16.0127 7.7131 15.9238 7.60357 15.9238H6.15675C6.04722 15.9238 5.95833 16.0127 5.95833 16.1222V21.9401H5.01369V16.1222C5.01369 16.0127 4.9248 15.9238 4.81528 15.9238H3.36845C3.25893 15.9238 3.17004 16.0127 3.17004 16.1222V21.9401H1.52659V11.6083H23.4734V21.9401H21.83ZM23.8442 10.3173H23.6718H1.32817H1.15575C0.74623 10.3173 0.413492 9.99048 0.399603 9.58433H24.6008C24.5865 9.99048 24.2538 10.3173 23.8442 10.3173Z" fill="black"/>
<path d="M4.81528 12.8044H3.36846C3.25893 12.8044 3.17004 12.8933 3.17004 13.0029V15.1181C3.17004 15.2277 3.25893 15.3165 3.36846 15.3165H4.81528C4.92481 15.3165 5.01369 15.2277 5.01369 15.1181V13.0029C5.01369 12.8931 4.92481 12.8044 4.81528 12.8044ZM4.61687 14.9197H3.56687V13.2013H4.61687V14.9197Z" fill="black"/>
<path d="M7.60357 12.8044H6.15674C6.04722 12.8044 5.95833 12.8933 5.95833 13.0029V15.1181C5.95833 15.2277 6.04722 15.3165 6.15674 15.3165H7.60357C7.71309 15.3165 7.80198 15.2277 7.80198 15.1181V13.0029C7.80198 12.8931 7.71329 12.8044 7.60357 12.8044ZM7.40515 14.9197H6.35515V13.2013H7.40515V14.9197Z" fill="black"/>
<path d="M13.224 12.8044H11.777C11.6675 12.8044 11.5786 12.8933 11.5786 13.0029V15.1181C11.5786 15.2277 11.6675 15.3165 11.777 15.3165H13.224C13.3335 15.3165 13.4224 15.2277 13.4224 15.1181V13.0029C13.4224 12.8931 13.3337 12.8044 13.224 12.8044ZM13.0256 14.9197H11.9754V13.2013H13.0256V14.9197Z" fill="black"/>
<path d="M10.4937 12.8044H9.04683C8.93731 12.8044 8.84842 12.8933 8.84842 13.0029V15.1181C8.84842 15.2277 8.93731 15.3165 9.04683 15.3165H10.4937C10.6032 15.3165 10.6921 15.2277 10.6921 15.1181V13.0029C10.6921 12.8931 10.6032 12.8044 10.4937 12.8044ZM10.2952 14.9197H9.24524V13.2013H10.2952V14.9197Z" fill="black"/>
<path d="M21.6316 12.8044H20.1847C20.0752 12.8044 19.9863 12.8933 19.9863 13.0029V15.1181C19.9863 15.2277 20.0752 15.3165 20.1847 15.3165H21.6316C21.7411 15.3165 21.83 15.2277 21.83 15.1181V13.0029C21.83 12.8931 21.7413 12.8044 21.6316 12.8044ZM21.4331 14.9197H20.3831V13.2013H21.4331V14.9197Z" fill="black"/>
<path d="M18.8433 12.8044H17.3964C17.2869 12.8044 17.198 12.8933 17.198 13.0029V15.1181C17.198 15.2277 17.2869 15.3165 17.3964 15.3165H18.8433C18.9528 15.3165 19.0417 15.2277 19.0417 15.1181V13.0029C19.0417 12.8931 18.9528 12.8044 18.8433 12.8044ZM18.6448 14.9197H17.5948V13.2013H18.6448V14.9197Z" fill="black"/>
<path d="M15.9532 12.8044H14.5064C14.3968 12.8044 14.3079 12.8933 14.3079 13.0029V15.1181C14.3079 15.2277 14.3968 15.3165 14.5064 15.3165H15.9532C16.0627 15.3165 16.1516 15.2277 16.1516 15.1181V13.0029C16.1516 12.8931 16.0629 12.8044 15.9532 12.8044ZM15.7548 14.9197H14.7048V13.2013H15.7548V14.9197Z" fill="black"/>
</svg>
