<svg width="43" height="43" viewBox="0 0 43 43" fill="none" xmlns="http://www.w3.org/2000/svg">
<rect width="43" height="43" rx="21.5" fill="#F5F5F5"/>
<g clip-path="url(#clip0_535_584)">
<path d="M20.9999 13.5703C24.2014 13.5703 27.2718 14.8421 29.5357 17.106C31.7996 19.3698 33.0713 22.4402 33.0713 25.6417C33.0713 26.1343 32.8756 26.6067 32.5274 26.9549C32.1792 27.3031 31.7067 27.4989 31.2142 27.4989H10.7856C10.2931 27.4989 9.82069 27.3031 9.47241 26.9549C9.12413 26.6067 8.92847 26.1343 8.92847 25.6417C8.92847 22.4402 10.2003 19.3698 12.4641 17.106C14.7279 14.8421 17.7983 13.5703 20.9999 13.5703Z" stroke="#666666" stroke-width="2" stroke-linecap="round" stroke-linejoin="round"/>
<path d="M21 13.5709V10.7852" stroke="#666666" stroke-width="2" stroke-linecap="round" stroke-linejoin="round"/>
<path d="M8.92847 31.2129H33.0713" stroke="#666666" stroke-width="2" stroke-linecap="round" stroke-linejoin="round"/>
</g>
<defs>
<clipPath id="clip0_535_584">
<rect width="26" height="25" fill="white" transform="translate(8 9)"/>
</clipPath>
</defs>
</svg>
