<svg width="30" height="30" viewBox="0 0 30 30" fill="none" xmlns="http://www.w3.org/2000/svg">
<path d="M7.29465 4.80469H22.6753C23.3493 4.80469 23.8762 5.3325 23.8762 6.00563V23.3494C23.8762 24.0234 23.3484 24.5503 22.6753 24.5503H18.72V20.6541H11.249V24.5503H7.29371C6.61965 24.5503 6.09277 24.0225 6.09277 23.3494V6.00563C6.09277 5.33156 6.62059 4.80469 7.29371 4.80469H7.29465ZM8.7309 8.73094H21.2409V7.26562H8.7309V8.73094ZM8.7309 12.0994H21.2409V10.6341H8.7309V12.0994ZM8.7309 15.4688H21.2409V14.0034H8.7309V15.4688ZM8.7309 18.8381H21.2409V17.3728H8.7309V18.8381ZM14.5903 25.1953H12.0412V21.4453H14.5903V25.1953ZM17.9296 25.1953H15.3806V21.4453H17.9296V25.1953Z" fill="#6C6C6C"/>
</svg>
