<svg width="43" height="43" viewBox="0 0 43 43" fill="none" xmlns="http://www.w3.org/2000/svg">
<rect width="43" height="43" rx="21.5" fill="#F5F5F5"/>
<path d="M13.2946 11.8047H28.6753C29.3493 11.8047 29.8762 12.3325 29.8762 13.0056V30.3494C29.8762 31.0234 29.3484 31.5503 28.6753 31.5503H24.72V27.6541H17.249V31.5503H13.2937C12.6196 31.5503 12.0928 31.0225 12.0928 30.3494V13.0056C12.0928 12.3316 12.6206 11.8047 13.2937 11.8047H13.2946ZM14.7309 15.7309H27.2409V14.2656H14.7309V15.7309ZM14.7309 19.0994H27.2409V17.6341H14.7309V19.0994ZM14.7309 22.4688H27.2409V21.0034H14.7309V22.4688ZM14.7309 25.8381H27.2409V24.3728H14.7309V25.8381ZM20.5903 32.1953H18.0412V28.4453H20.5903V32.1953ZM23.9296 32.1953H21.3806V28.4453H23.9296V32.1953Z" fill="#6C6C6C"/>
</svg>
