<svg width="43" height="43" viewBox="0 0 43 43" fill="none" xmlns="http://www.w3.org/2000/svg">
<rect width="43" height="43" rx="21.5" fill="#F5F5F5"/>
<path d="M17.9614 19.8462C20.4042 19.8462 22.3845 17.8659 22.3845 15.4231C22.3845 12.9803 20.4042 11 17.9614 11C15.5186 11 13.5383 12.9803 13.5383 15.4231C13.5383 17.8659 15.5186 19.8462 17.9614 19.8462Z" stroke="#666666" stroke-width="2" stroke-linecap="round" stroke-linejoin="round"/>
<path d="M10 32.232H25.9231V31.2729C25.909 29.9243 25.5533 28.6013 24.8894 27.4276C24.2254 26.2537 23.2747 25.2674 22.1262 24.5606C20.9776 23.8538 19.6687 23.4496 18.3216 23.3859C18.2015 23.3802 18.0815 23.3772 17.9615 23.377C17.8416 23.3772 17.7216 23.3802 17.6015 23.3859C16.2544 23.4496 14.9454 23.8538 13.7969 24.5606C12.6484 25.2674 11.6977 26.2537 11.0337 27.4276C10.3697 28.6013 10.0141 29.9243 10 31.2729V32.232Z" stroke="#666666" stroke-width="2" stroke-linecap="round" stroke-linejoin="round"/>
<path d="M25.0386 19.8462C27.4814 19.8462 29.4617 17.8659 29.4617 15.4231C29.4617 12.9803 27.4814 11 25.0386 11" stroke="#666666" stroke-width="2" stroke-linecap="round" stroke-linejoin="round"/>
<path d="M29.4615 32.2307H32.9999V31.2714C32.9858 29.9229 32.6302 28.5999 31.9662 27.4262C31.3022 26.2523 30.3516 25.266 29.203 24.5592C28.4606 24.1023 27.651 23.7719 26.8076 23.5781" stroke="#666666" stroke-width="2" stroke-linecap="round" stroke-linejoin="round"/>
</svg>
