<svg width="43" height="43" viewBox="0 0 43 43" fill="none" xmlns="http://www.w3.org/2000/svg">
<rect width="43" height="43" rx="21.5" fill="#F5F5F5"/>
<path d="M29.6784 24.7645L23.6724 30.7692C23.3874 31.0522 23.002 31.211 22.6003 31.211C22.1986 31.211 21.8132 31.0522 21.5281 30.7692L12.9344 22.1755C12.2933 21.4608 11.9204 20.5456 11.8794 19.5864L11.9382 14.5493C11.9456 14.1446 12.1098 13.7587 12.3963 13.4728C12.6827 13.1868 13.069 13.0233 13.4736 13.0166L18.4957 12.9688C19.4549 13.012 20.3697 13.3857 21.0848 14.0265L29.6784 22.6202C29.9615 22.9053 30.1203 23.2907 30.1203 23.6924C30.1203 24.0941 29.9615 24.4795 29.6784 24.7645ZM15.9723 16.0244C15.9723 15.8101 15.9088 15.6005 15.7897 15.4223C15.6706 15.2441 15.5013 15.1052 15.3033 15.0231C15.1053 14.9411 14.8874 14.9197 14.6771 14.9615C14.4669 15.0033 14.2738 15.1065 14.1222 15.2581C13.9706 15.4096 13.8674 15.6028 13.8256 15.813C13.7838 16.0232 13.8052 16.2411 13.8873 16.4392C13.9693 16.6372 14.1082 16.8065 14.2864 16.9256C14.4647 17.0447 14.6742 17.1082 14.8886 17.1082C15.176 17.1082 15.4517 16.994 15.6549 16.7908C15.8582 16.5875 15.9723 16.3119 15.9723 16.0244ZM24.9957 26.0796C25.0662 26.0092 25.1221 25.9256 25.1603 25.8335C25.1985 25.7415 25.2181 25.6428 25.2181 25.5432C25.2181 25.4435 25.1985 25.3449 25.1603 25.2528C25.1221 25.1608 25.0662 25.0772 24.9957 25.0067L24.447 24.458C24.6733 24.1111 24.8355 23.7264 24.9259 23.3222C25.0224 22.9618 25.023 22.5824 24.9277 22.2216C24.8324 21.8609 24.6445 21.5313 24.3827 21.2655C24.0101 20.8944 23.5157 20.6708 22.991 20.636C22.6447 20.6137 22.2972 20.6531 21.9647 20.7523H21.9619C21.6771 20.8421 21.4055 20.9696 21.1546 21.1314H21.1504C20.934 21.2726 20.7331 21.4364 20.5511 21.6199C20.4415 21.7299 20.323 21.8306 20.1967 21.921C20.0586 22.0198 19.9069 22.0981 19.7464 22.1536H19.7437C19.5947 22.2025 19.4373 22.2202 19.2812 22.2056H19.2784C19.1186 22.1928 18.9675 22.1273 18.8488 22.0195C18.7619 21.9215 18.7027 21.8022 18.6772 21.6738C18.6517 21.5454 18.6609 21.4125 18.7037 21.2887C18.7995 20.9201 18.9934 20.5844 19.2648 20.3172C19.3629 20.2329 19.4682 20.1574 19.5795 20.0914L19.6206 20.0654C19.76 19.9801 19.9076 19.909 20.0612 19.8533C20.2034 19.7999 20.354 19.7721 20.5059 19.7712C20.707 19.7712 20.8998 19.6913 21.042 19.5491C21.1842 19.407 21.264 19.2141 21.264 19.0131C21.264 18.812 21.1842 18.6192 21.042 18.477C20.8998 18.3348 20.707 18.255 20.5059 18.255C20.1707 18.2563 19.8371 18.3175 19.5234 18.4356C19.2704 18.5288 19.0278 18.648 18.7995 18.7914L18.7858 18.7996L18.2412 18.2522C18.1707 18.1818 18.0869 18.1259 17.9948 18.0878C17.9027 18.0497 17.804 18.0302 17.7043 18.0302C17.6046 18.0303 17.5059 18.05 17.4138 18.0882C17.3217 18.1264 17.2381 18.1824 17.1677 18.2529C17.0972 18.3234 17.0414 18.4072 17.0033 18.4993C16.9652 18.5914 16.9456 18.6901 16.9457 18.7898C16.9457 18.8895 16.9654 18.9882 17.0036 19.0803C17.0418 19.1723 17.0978 19.256 17.1683 19.3264L17.6993 19.856C17.478 20.1917 17.3173 20.5636 17.2244 20.9549C17.1254 21.3284 17.1242 21.7212 17.221 22.0953C17.3178 22.4695 17.5094 22.8124 17.7773 23.091C18.1409 23.447 18.6158 23.6673 19.1224 23.715C19.4941 23.7531 19.8697 23.7115 20.224 23.5932C20.5287 23.4907 20.8165 23.3436 21.0779 23.1566C21.272 23.0174 21.4542 22.8622 21.6226 22.6927C21.729 22.5858 21.8464 22.4904 21.9729 22.4081C22.1094 22.3208 22.2565 22.2513 22.4108 22.2015C22.5653 22.1569 22.7264 22.1393 22.887 22.1495C23.0457 22.1603 23.1953 22.2278 23.3084 22.3397C23.3769 22.4068 23.5342 22.5655 23.4412 23.0075C23.3474 23.3854 23.152 23.7304 22.876 24.0051C22.7557 24.114 22.6276 24.2142 22.4929 24.3048C22.3608 24.3901 22.2205 24.4621 22.0741 24.5196C21.9348 24.5733 21.7847 24.593 21.6362 24.5771C21.5369 24.5699 21.437 24.5823 21.3425 24.6137C21.2479 24.6451 21.1605 24.6948 21.0851 24.76C21.0098 24.8252 20.948 24.9046 20.9033 24.9936C20.8586 25.0827 20.832 25.1797 20.8248 25.2791C20.8176 25.3784 20.83 25.4783 20.8614 25.5728C20.8928 25.6674 20.9425 25.7548 21.0077 25.8302C21.0729 25.9055 21.1523 25.9673 21.2413 26.012C21.3304 26.0567 21.4274 26.0834 21.5268 26.0905C21.5979 26.096 21.6677 26.0974 21.7348 26.0974C22.0565 26.1008 22.3755 26.0384 22.6721 25.914C22.916 25.8161 23.1486 25.6922 23.3659 25.5445L23.3796 25.535L23.9229 26.0796C24.0652 26.2212 24.2578 26.3007 24.4586 26.3007C24.6594 26.3007 24.852 26.2212 24.9943 26.0796H24.9957Z" fill="#666666"/>
</svg>
