<svg width="34" height="34" viewBox="0 0 34 34" fill="none" xmlns="http://www.w3.org/2000/svg">
<circle cx="17" cy="17" r="17" fill="white"/>
<path d="M25.7539 22.8242C26.0703 23.1758 26.0703 23.7031 25.7188 24.0195L24.7344 25.0039C24.418 25.3555 23.8906 25.3555 23.5391 25.0039L20.0586 21.5234C19.8828 21.3477 19.8125 21.1367 19.8125 20.9258V20.3281C18.5469 21.3125 17 21.875 15.3125 21.875C11.2695 21.875 8 18.6055 8 14.5625C8 10.5547 11.2695 7.25 15.3125 7.25C19.3203 7.25 22.625 10.5547 22.625 14.5625C22.625 16.2852 22.0273 17.832 21.0781 19.0625H21.6406C21.8516 19.0625 22.0625 19.168 22.2383 19.3086L25.7539 22.8242ZM15.3125 19.0625C17.7734 19.0625 19.8125 17.0586 19.8125 14.5625C19.8125 12.1016 17.7734 10.0625 15.3125 10.0625C12.8164 10.0625 10.8125 12.1016 10.8125 14.5625C10.8125 17.0586 12.8164 19.0625 15.3125 19.0625Z" fill="#F5BE4F"/>
</svg>
