<svg width="43" height="43" viewBox="0 0 43 43" fill="none" xmlns="http://www.w3.org/2000/svg">
<rect width="43" height="43" rx="21.5" fill="#F5F5F5"/>
<g clip-path="url(#clip0_560_583)">
<path d="M35.5659 17.5361C35.5711 17.4745 35.5641 17.4124 35.5452 17.3535C35.5264 17.2945 35.4961 17.2399 35.456 17.1928C35.4159 17.1456 35.3669 17.1069 35.3118 17.0788C35.2567 17.0507 35.1966 17.0337 35.1349 17.029C35.0732 17.0242 35.0112 17.0317 34.9524 17.051C34.8936 17.0703 34.8393 17.1011 34.7925 17.1415C34.7456 17.182 34.7073 17.2313 34.6796 17.2866C34.6519 17.3419 34.6355 17.4022 34.6312 17.4639L34.1596 23.5938H31.2215C31.2784 23.4133 31.3091 23.2256 31.3124 23.0364V22.6563H32.863C32.9814 22.6566 33.0954 22.6122 33.1824 22.532C33.2693 22.4517 33.3227 22.3416 33.3318 22.2236L33.9904 13.6422C34.014 13.3536 34.1255 13.0793 34.3099 12.8561C34.4943 12.6329 34.7427 12.4716 35.0216 12.3939L34.776 15.5889C34.7711 15.6504 34.7783 15.7122 34.7973 15.7708C34.8163 15.8295 34.8467 15.8838 34.8867 15.9307C34.9267 15.9776 34.9756 16.0161 35.0305 16.0441C35.0854 16.0721 35.1453 16.089 35.2068 16.0938C35.3304 16.1018 35.4523 16.0612 35.5463 15.9807C35.6404 15.9001 35.6992 15.7859 35.7102 15.6625L35.9985 11.9125C36.0037 11.848 35.9955 11.7831 35.9743 11.7219C35.9532 11.6607 35.9196 11.6046 35.8757 11.557C35.8318 11.5095 35.7785 11.4715 35.7192 11.4456C35.6599 11.4196 35.5959 11.4062 35.5312 11.4063H35.3906C34.8008 11.4087 34.2335 11.6323 33.8008 12.033C33.3681 12.4337 33.1015 12.9822 33.0538 13.57L32.5729 19.8438H31.3124V17.5C31.3124 17.127 31.1643 16.7694 30.9005 16.5056C30.6368 16.2419 30.2791 16.0938 29.9062 16.0938H25.2187C25.2178 15.3054 24.933 14.5437 24.4166 13.9481C23.9001 13.3524 23.1865 12.9626 22.4062 12.85V12.8125C22.4062 12.4395 22.258 12.0819 21.9943 11.8181C21.7306 11.5544 21.3729 11.4063 20.9999 11.4063C20.627 11.4063 20.2693 11.5544 20.0056 11.8181C19.7418 12.0819 19.5937 12.4395 19.5937 12.8125V12.85C18.8134 12.9626 18.0997 13.3524 17.5833 13.9481C17.0668 14.5437 16.7821 15.3054 16.7812 16.0938H12.0937C11.7207 16.0938 11.363 16.2419 11.0993 16.5056C10.8356 16.7694 10.6874 17.127 10.6874 17.5V19.8438H9.42696L8.94415 13.5705C8.89661 12.9829 8.63037 12.4346 8.19804 12.0338C7.76572 11.6331 7.19878 11.4091 6.6093 11.4063H6.46868C6.40396 11.4061 6.33991 11.4193 6.28055 11.4451C6.22119 11.4708 6.16781 11.5086 6.12378 11.5561C6.07974 11.6035 6.04601 11.6595 6.02469 11.7206C6.00337 11.7817 5.99494 11.8466 5.99993 11.9111L6.93743 24.0517L6.00368 31.5044C5.99544 31.5703 6.00131 31.6373 6.02091 31.7008C6.04051 31.7642 6.07339 31.8229 6.11736 31.8727C6.16133 31.9225 6.2154 31.9624 6.27597 31.9897C6.33653 32.0171 6.40222 32.0312 6.46868 32.0312H7.87493C7.98422 32.0313 8.09009 31.9931 8.17423 31.9234C8.25837 31.8536 8.31549 31.7566 8.33571 31.6492L9.67024 24.5313H11.3699C11.7187 24.8495 12.1787 25.0179 12.6506 25C12.6763 25 12.7021 24.9939 12.7279 24.9916L13.9766 31.6511C13.9973 31.7582 14.0545 31.8547 14.1386 31.9241C14.2227 31.9935 14.3284 32.0314 14.4374 32.0312H15.8437C15.9101 32.0312 15.9758 32.0171 16.0364 31.9897C16.097 31.9624 16.151 31.9225 16.195 31.8727C16.239 31.8229 16.2718 31.7642 16.2914 31.7008C16.311 31.6373 16.3169 31.5703 16.3087 31.5044L15.4687 24.7909C15.7463 24.9309 16.0544 24.9999 16.3652 24.9917C16.676 24.9835 16.98 24.8985 17.2499 24.7441C17.5352 24.9079 17.8585 24.994 18.1874 24.994C18.5164 24.994 18.8396 24.9079 19.1249 24.7441C19.2714 24.8294 19.4292 24.8936 19.5937 24.9348V29.2656C19.0647 29.3744 18.5893 29.6623 18.2478 30.0807C17.9062 30.4991 17.7194 31.0224 17.7187 31.5625C17.7187 31.6868 17.7681 31.806 17.856 31.894C17.9439 31.9819 18.0631 32.0312 18.1874 32.0312H23.8124C23.9367 32.0312 24.056 31.9819 24.1439 31.894C24.2318 31.806 24.2812 31.6868 24.2812 31.5625C24.2805 31.0224 24.0936 30.4991 23.7521 30.0807C23.4105 29.6623 22.9352 29.3744 22.4062 29.2656V24.9344C22.5706 24.8931 22.7284 24.8289 22.8749 24.7436C23.1602 24.9074 23.4835 24.9936 23.8124 24.9936C24.1414 24.9936 24.4646 24.9074 24.7499 24.7436C25.0198 24.898 25.3238 24.9831 25.6346 24.9913C25.9455 24.9994 26.2535 24.9305 26.5312 24.7905L25.6921 31.5039C25.6838 31.5698 25.6896 31.6367 25.7091 31.7002C25.7286 31.7637 25.7614 31.8223 25.8053 31.8722C25.8492 31.922 25.9031 31.962 25.9636 31.9894C26.0241 32.0169 26.0898 32.0311 26.1562 32.0312H27.5624C27.6717 32.0313 27.7776 31.9931 27.8617 31.9234C27.9459 31.8536 28.003 31.7566 28.0232 31.6492L29.272 24.9897C29.2977 24.9897 29.3235 24.9967 29.3498 24.9981C29.376 24.9995 29.4056 24.9981 29.4332 24.9981C29.8765 24.9943 30.3028 24.8275 30.6309 24.5294H32.3296L33.6641 31.6473C33.684 31.7551 33.7409 31.8525 33.8251 31.9226C33.9093 31.9928 34.0154 32.0312 34.1249 32.0312H35.5312C35.5976 32.0312 35.6633 32.0171 35.7239 31.9897C35.7845 31.9624 35.8385 31.9225 35.8825 31.8727C35.9265 31.8229 35.9593 31.7642 35.9789 31.7008C35.9985 31.6373 36.0044 31.5703 35.9962 31.5044L35.0648 24.0513L35.5659 17.5361ZM32.5007 20.7813L32.4285 21.7188H31.3124V20.7813H32.5007ZM20.9999 12.3438C21.1242 12.3438 21.2435 12.3931 21.3314 12.481C21.4193 12.569 21.4687 12.6882 21.4687 12.8125H20.5312C20.5312 12.6882 20.5806 12.569 20.6685 12.481C20.7564 12.3931 20.8756 12.3438 20.9999 12.3438ZM20.0624 13.75H21.9374C22.5588 13.7507 23.1545 13.9979 23.5939 14.4373C24.0333 14.8767 24.2804 15.4724 24.2812 16.0938H17.7187C17.7194 15.4724 17.9666 14.8767 18.406 14.4373C18.8453 13.9979 19.4411 13.7507 20.0624 13.75ZM10.6874 20.7813V21.7188H9.57133L9.49915 20.7813H10.6874ZM8.00946 13.6427L8.66852 22.2236C8.67763 22.3416 8.73101 22.4517 8.81795 22.532C8.90489 22.6122 9.01896 22.6566 9.13727 22.6563H10.6874V23.0364C10.6908 23.2256 10.7214 23.4133 10.7784 23.5938H7.84024L6.97868 12.3939C7.25757 12.4717 7.50592 12.6331 7.69024 12.8564C7.87455 13.0796 7.98596 13.3541 8.00946 13.6427ZM7.48586 31.0938H6.99977L7.82008 24.5313H8.71868L7.48586 31.0938ZM14.8265 31.0938L13.6499 24.8186C13.9314 24.9478 14.2403 25.0056 14.5495 24.9869L15.3126 31.0938H14.8265ZM20.9999 24.7441C21.1464 24.8294 21.3042 24.8936 21.4687 24.9348V29.2188H20.5312V24.9348C20.6956 24.8936 20.8534 24.8294 20.9999 24.7441ZM23.2635 31.0938H18.7363C18.8336 30.8198 19.0133 30.5826 19.2507 30.4147C19.4881 30.2469 19.7717 30.1566 20.0624 30.1562H21.9374C22.2282 30.1566 22.5117 30.2469 22.7491 30.4147C22.9865 30.5826 23.1662 30.8198 23.2635 31.0938ZM27.1734 31.0938H26.6873L27.4504 24.9869C27.7595 25.0061 28.0686 24.9483 28.3499 24.8186L27.1734 31.0938ZM29.3943 24.0625C29.2435 24.0547 29.0971 24.0089 28.9687 23.9294V21.7188C28.9687 21.5944 28.9193 21.4752 28.8314 21.3873C28.7435 21.2994 28.6242 21.25 28.4999 21.25C28.3756 21.25 28.2564 21.2994 28.1685 21.3873C28.0806 21.4752 28.0312 21.5944 28.0312 21.7188V23.9294C27.8903 24.0165 27.728 24.0626 27.5624 24.0625C27.3313 24.0619 27.1087 23.9748 26.9385 23.8183C26.8524 23.7408 26.7407 23.6979 26.6249 23.6979C26.5091 23.6979 26.3974 23.7408 26.3113 23.8183C26.1412 23.9748 25.9186 24.0619 25.6874 24.0625C25.5218 24.0626 25.3595 24.0165 25.2187 23.9294V22.6563C25.2187 22.5319 25.1693 22.4127 25.0814 22.3248C24.9935 22.2369 24.8742 22.1875 24.7499 22.1875C24.6256 22.1875 24.5064 22.2369 24.4185 22.3248C24.3306 22.4127 24.2812 22.5319 24.2812 22.6563V23.9294C24.1403 24.0165 23.978 24.0626 23.8124 24.0625C23.5813 24.0619 23.3587 23.9748 23.1885 23.8183C23.1024 23.7408 22.9907 23.6979 22.8749 23.6979C22.7591 23.6979 22.6474 23.7408 22.5613 23.8183C22.3912 23.9748 22.1686 24.0619 21.9374 24.0625C21.7718 24.0626 21.6095 24.0165 21.4687 23.9294V21.7188C21.4687 21.5944 21.4193 21.4752 21.3314 21.3873C21.2435 21.2994 21.1242 21.25 20.9999 21.25C20.8756 21.25 20.7564 21.2994 20.6685 21.3873C20.5806 21.4752 20.5312 21.5944 20.5312 21.7188V23.9294C20.3903 24.0165 20.228 24.0626 20.0624 24.0625C19.8313 24.0619 19.6087 23.9748 19.4385 23.8183C19.3524 23.7408 19.2407 23.6979 19.1249 23.6979C19.0091 23.6979 18.8974 23.7408 18.8113 23.8183C18.6412 23.9748 18.4186 24.0619 18.1874 24.0625C18.0218 24.0626 17.8595 24.0165 17.7187 23.9294V22.6563C17.7187 22.5319 17.6693 22.4127 17.5814 22.3248C17.4935 22.2369 17.3742 22.1875 17.2499 22.1875C17.1256 22.1875 17.0064 22.2369 16.9185 22.3248C16.8306 22.4127 16.7812 22.5319 16.7812 22.6563V23.9294C16.6403 24.0165 16.478 24.0626 16.3124 24.0625C16.0813 24.0619 15.8587 23.9748 15.6885 23.8183C15.6024 23.7408 15.4907 23.6979 15.3749 23.6979C15.2591 23.6979 15.1474 23.7408 15.0613 23.8183C14.8912 23.9748 14.6686 24.0619 14.4374 24.0625C14.2718 24.0626 14.1095 24.0165 13.9687 23.9294V21.7188C13.9687 21.5944 13.9193 21.4752 13.8314 21.3873C13.7435 21.2994 13.6242 21.25 13.4999 21.25C13.3756 21.25 13.2564 21.2994 13.1685 21.3873C13.0806 21.4752 13.0312 21.5944 13.0312 21.7188V23.9294C12.8649 24.0341 12.6679 24.079 12.4726 24.0567C12.2774 24.0343 12.0956 23.9461 11.9573 23.8066C11.853 23.7071 11.7698 23.5876 11.7127 23.4553C11.6556 23.323 11.6258 23.1805 11.6249 23.0364V17.5C11.6249 17.3757 11.6743 17.2565 11.7622 17.1685C11.8501 17.0806 11.9694 17.0313 12.0937 17.0313H29.9062C30.0305 17.0313 30.1497 17.0806 30.2376 17.1685C30.3255 17.2565 30.3749 17.3757 30.3749 17.5V23.0364C30.3741 23.1805 30.3442 23.323 30.2871 23.4553C30.23 23.5876 30.1469 23.7071 30.0426 23.8066C29.9578 23.8913 29.8565 23.9577 29.745 24.0017C29.6335 24.0458 29.5141 24.0664 29.3943 24.0625ZM34.514 31.0938L33.2835 24.5313H34.1798L35.0001 31.0938H34.514Z" fill="#666666"/>
</g>
<defs>
<clipPath id="clip0_560_583">
<rect width="30" height="23.9062" fill="white" transform="translate(6 10)"/>
</clipPath>
</defs>
</svg>
