<svg width="15" height="15" viewBox="0 0 15 15" fill="none" xmlns="http://www.w3.org/2000/svg">
<g clip-path="url(#clip0_38_756)">
<path d="M5.35715 0.535721H1.60715C1.32299 0.535721 1.05047 0.648603 0.849535 0.849535C0.648603 1.05047 0.535721 1.32299 0.535721 1.60715V5.35715C0.535721 5.64131 0.648603 5.91383 0.849535 6.11476C1.05047 6.3157 1.32299 6.42858 1.60715 6.42858H5.35715C5.64131 6.42858 5.91383 6.3157 6.11476 6.11476C6.3157 5.91383 6.42858 5.64131 6.42858 5.35715V1.60715C6.42858 1.32299 6.3157 1.05047 6.11476 0.849535C5.91383 0.648603 5.64131 0.535721 5.35715 0.535721Z" stroke="white" stroke-width="1.71429" stroke-linecap="round" stroke-linejoin="round"/>
<path d="M13.3929 8.57144H9.64287C9.35871 8.57144 9.08619 8.68432 8.88526 8.88526C8.68432 9.08619 8.57144 9.35871 8.57144 9.64287V13.3929C8.57144 13.677 8.68432 13.9496 8.88526 14.1505C9.08619 14.3514 9.35871 14.4643 9.64287 14.4643H13.3929C13.677 14.4643 13.9496 14.3514 14.1505 14.1505C14.3514 13.9496 14.4643 13.677 14.4643 13.3929V9.64287C14.4643 9.35871 14.3514 9.08619 14.1505 8.88526C13.9496 8.68432 13.677 8.57144 13.3929 8.57144Z" stroke="white" stroke-width="1.71429" stroke-linecap="round" stroke-linejoin="round"/>
<path d="M5.35715 8.57144H1.60715C1.32299 8.57144 1.05047 8.68432 0.849535 8.88526C0.648603 9.08619 0.535721 9.35871 0.535721 9.64287V13.3929C0.535721 13.677 0.648603 13.9496 0.849535 14.1505C1.05047 14.3514 1.32299 14.4643 1.60715 14.4643H5.35715C5.64131 14.4643 5.91383 14.3514 6.11476 14.1505C6.3157 13.9496 6.42858 13.677 6.42858 13.3929V9.64287C6.42858 9.35871 6.3157 9.08619 6.11476 8.88526C5.91383 8.68432 5.64131 8.57144 5.35715 8.57144Z" stroke="white" stroke-width="1.71429" stroke-linecap="round" stroke-linejoin="round"/>
<path d="M11.5179 6.42858V0.535721" stroke="white" stroke-width="1.71429" stroke-linecap="round" stroke-linejoin="round"/>
<path d="M8.57144 3.48215H14.4643" stroke="white" stroke-width="1.71429" stroke-linecap="round" stroke-linejoin="round"/>
</g>
<defs>
<clipPath id="clip0_38_756">
<rect width="15" height="15" fill="white"/>
</clipPath>
</defs>
</svg>
